<mxfile host="app.diagrams.net" agent="Mozilla/5.0 (Windows NT 10.0; Win64; x64) AppleWebKit/537.36 (KHTML, like Gecko) Chrome/137.0.0.0 Safari/537.36" version="27.1.4">
  <diagram name="PÃ¡gina-1" id="d06zUKxTcaZc3wsWwJ_5">
    <mxGraphModel grid="0" page="0" gridSize="10" guides="1" tooltips="1" connect="1" arrows="1" fold="1" pageScale="1" pageWidth="827" pageHeight="1169" math="0" shadow="0" adaptiveColors="simple">
      <root>
        <mxCell id="0" />
        <mxCell id="1" parent="0" />
        <mxCell id="ScwAG8ltsHQ75pT-9Db9-1" value="" style="shape=image;verticalLabelPosition=bottom;labelBackgroundColor=default;verticalAlign=top;aspect=fixed;imageAspect=0;image=data:image/png,iVBORw0KGgoAAAANSUhEUgAAAckAAAELCAYAAACyH33OAAAAAXNSR0IArs4c6QAAAARnQU1BAACxjwv8YQUAAAAJcEhZcwAAEnQAABJ0Ad5mH3gAAII6SURBVHhe7d17XFR1/vjx1wYyGIIpqDCOooiCCJqQpWhKlqIrXtfNVVbL0tbKXDNd2lD8SVK6UrGWZVdNU8vIuyl4CbwgaqCAyEUEURy8gAoTyYzi9/fHzDBnDgx3b+3n+XhMOZ/353POmXOG8z63+Xz+1LmLx/8hCIIgCEIVj8gLBEEQBEHQE0lSEARBECwQSVIQBEEQLBBJUhAEQRAsEElSeDipAhkxVCkvFQRBaFJ/aujTrUr7Vkzyb4Xi6mV2p5aRdNtYbou3vaneb9fLSbhpfGeFv7IZLUxhPd0tYosqTO+trQhwguxLFagNRR5OtrjamKpIFV8pp7C5+XylMeOyVc/CMgHcucUpyTIo7W3pRjlxGkmd5jYMbWU61tBpzOMeTra4aGVtjGRtjczXmQU+gxil0nJiVyIXpGVtrrJt/2nzuveFiskhU+Hnd1mbJo81Vn9CNryLb+5KJoRulAcFQRCaTIOSpP/g/iwZ4oSmsIhSu7Z0bnGF7R8dJqIIJk0KYlavZui0d4BHsFGAOjGOmZuvo6YjG5b1o7OuHJ0kJ5L/KwO/vlj51m9EACsCIG5xHG+X6MvmvjyaUa7op9ncBiqnUcav3+7l16ek8zXSx+aclRRV0Z5vw5+gM4BVM2xsQHfzlj6kyWT5siyiAbBhyVtjCSCZ1z84Q5Kx+eCnSRzeztDmEWyaW6HJTGDh12oSgNA3JhBQvIsh60uNLUzM2prk7dnKCwfNiqpaspPcoVd5z/dFvpKW9T6BW+B887r3xQJis4Ih2pOhofJY40z4736mt9rG5ClRFMqDgiAITaj+SbKlG5vm+1C8YSvTk/VFs6aPZZLVUcatVBMwKYhZjqn0/fg8AMruj/PtS21J+ziWOec7smFZT659vYPXM80na2JIRs6g3r+Zcbt0srgDK8KG0/rQD0zcbyqdJJtvg3j6sOflx4ibd5AIeaxlVzbN90XJZWIXxxFmSN4MfprEATdYHp7GegAnNza95YtmezQvJNQhSUrb1scDnyTvEtU8vvr+Wa4tGca/dsiDgiAITavqtb5aKP3ao9Tk8oshQQIsP3qavFu2+EsrGqgzcsnWtMLFXR6xoKUr3Zwvk3D0MkpPFX7y+H3iN6A9SvVJEi61w9vfwnVfgKLrFN60wqaGKveGimkf7+RkVia5OZnkpu5lXcggQ2wB21P38s0UU+1Fm1OI/yLY8G4Qi74/RIax7fGdRAWrTJVZwPbUTUSFrCY+VV8nY3OIPjTlc+JTU8gwvLYvkjQD8JnBN3Ep+ulmpXBy8wICZFVq4vJCH7rdyCRWJEhBEO6BeifJAOeWcL3E/MwnNYuJX+caLkuaU3Z3o5v9dQpzTGU2LW0ZqjS+bPCQ1Pfzb4/y0kXWJRRSrGzPMGtJsDbWCsl0bQmo5h5lw9gwuls71Nl57M69jtLdGfNHRprhpLRlvG97PnxtIH63TrP9kFmFGujbVi63k5W8QsPMjOStoQri5j6Hm/tzzI6Ffi/9k0WuAAoUjzqgkMxK8aiClo/qM/uoTyOY3K2AT8Z74uY+jg/OtmHUzAWMMtVG8agXo8Y7cOTTucyeO5eF38TrQ/GreC8slJCw9aTfVqBQVDYCBvHZx7Ppp93D7Gc9cRv/GemqYKK+myqtVKNxHp3RXcpirzwgCIJwF9Q7SdaJyo8D4aM5ED6WTS91RhN3mMjKq6B2+IwKZP4M46sXIysb2jDasx3qzHyS1PlkFSnxHlgZrJ2zt2S6gcx6zkFeo2FaqvBWXib7kI7Yo/kUd3RlqjR5N29HwBg//tK3Kz4dmqG5Xob8IrFF9m6Mlyzz/NHO8hr100bFNMlbhbOKDhSwbe4sXgr5jN2SmCXbXhuAm+/f2GY3hFFj3LhwOhdtG5XsSkEpR74Yx9srd7Btyw42bk/UF+cnErNlB9u2XEFrVh8YMwlfVQFx785lWz6QtpK3t5/GoWcgb8nrWtCiGejKq7l0LQiCcBc0LEn+yVp2JiVz6RSLV8awPPk6lOWzbWdZ5ROiUEbS2q0MDDO+jhNpDLVU4a0sR2unIjxQiUKno3M3Zc3zkipIkkx3K+M2N83O1M+/I8qbFdj0dSPcxwatrh3dnpJUuFlA9KeHmfhpHEMW7CO7bR+mjrSVVKiBJouVkmWWPsDUKJ/M5b3tpfi+upr4rBROHlrMGIeLHMmXV6zG4AVsP55C7NcRvPXKq8wc5IbZCaFRjU8NV6OVAgVaSiRn2RculFL6qD1tpPUEQRAeEPVOkuvPFYHTY5JLb8DTfTjwbx9eNL6/rSVWXU70ljTS6Mqo4XW7Qaf0a4/yZhk4udC1iwutK8rRuXZkUn0uud4Fw9zbodPcwaWLC127OKD9rQIPHwvJ+/Z18q5U4OjiKI80rUsatHYOtJUUTVO1getFxAAd+nan5Of5POXridv4WXyZ6kBg2HKiBkgaWPDOm8G4F6xnaI8nGfTnEQz97jRNcrhRAaCgpXQZWtqiqNA2zfQFQRCaWL2TJMfOkHbHjaHDbfVJwtqWJU+6gVrNanldill1/DLKp7xNCbQGU3so0WQeY+Knh/Wv5cfIuqXC50l5zXvIuiPeHctI225Ypk8PMzEmH51rR8bL6wJ+nh74u0Je5lV5qGltPkHObS8CI4PogP7sb3RPBy6kRnMB6P3SQqIiw3jdB0iLZ9uuDEqxxcEJoIDS3x1Q+Roe5Bm8gB4upkk7WIHCoQ1dAFyDeGeUF01y4XrNDpKvqug3YwY90E87auTjkH2UtfK6FmRf0dCiVWd5sSAIwl1R/yR5u5iFP6RBvyA2RYzmQEQQ/rpklq8rltcEICEmm6xmbgQONp5N2uH38gQSl0leb3SsTEbZydJzimKS8m7h0dPCWZtcx37m010WxApPeaX6UQ50pbMmn8PSn6wk55N1S4Vff8N7ey9mGea5YrIb2rhdvLXfdFfSvvdw2XI9TeVPByVtja8NgyubWpa/lNei4mF4JPHpKeR+EUyHs+tY+Kb+3uC2iM/YdsmNtzZnkpGaQnzkQMr3f83CLQAr+eTns7Qd/jm56SnkftwXbYHpDuLb3+zggnMQ32RlkhsbQaB1KaXyM0BLpq7mZE4muTkh9HMA9/H6p19PfjcViOal0HVc8JrN9vQUMmIjCbSK54OZS00dItRic8o5dC5uZvddBUEQ7pb6/05SwsPJlhY3auvRRrjbegwegsPZPdXfb3TtS6AXnJb2zFPJi4DBEGehh54ap9tIHfoOoUvZHuLq3RvPaP6zYx6t9z/PtA9Nd7oFQRDuhkYlSUG4H1yCP+XryfDttNf4oUAeFQRBaDr1v9wqCPdZ4brXCI+1Z9zbL8lDgiAITUqcSQqCIAiCBeJMUhAEQRAsEElSEARBECwQSVIQBEEQLBBJUhAEQRAsEElSEARBECwQSVIQBEEQLLhvPwHpEBzCNKvtLFxTfW8vYBjAd24b4nqOY6E8JqO0t8W7yviRd8hX68iytiKgbTM0VyS9AzW3YWjLCk5dgk7KZrSQtQTgzi1OXaqQjGBSEyv8lVYUq3VkGYusrQhoa0WhvMwJsi9VYO9ki6uFvt+LK5fVipG+zvRp839kJqhZr5HXrF6N66O5DUNbof+3IaK0t8VbcYvYogpDiWm+uUmXWV1ZDn7OtjhWHl4Zpml829yGoa2qHnv9dr2chJtW+CubYaMpJ87wOfTLKV0uC21v3c1tqF8uU3vzzyRfl/rPYnwnb6unM3xGDydbXK0ly2D4LurMpqGfRzdM6wWqrkvjNDH0dmU2XSxPuzp+zrYoSiT1pG2pYTsYYqbvp56fsy2Ot6XfH0H4Y7hvSXLRz5lMJhq3P8+Xh0ymruZkaBt2u4/gbXlMZvzY55jV2w6smmFjA7qbtwA128KOE+npw56XveDELoasN/QNO/hpEgfcYHn4NQLDn6AzyNoCmkyWL8uqdjDpKnx9OTCxA1kbtjI92VDm6cOelx8jbt5BIoz1PH3Y8zysCk9D+fJoRrkCPIJNcxvQlaOrACjj12/3Mie/FSvmPYtf81LUZc1Rtn6EvJidTJT0C2tJjetj8NMkDm9H3q5tldOaNCmIWY6p9P34PFgb5mtVRN41cHJ1Qpe0j+kbr6PGgRVhw/FTGJbVqhk23CDhu73MyTCs1+HtTOvQIG/PVl442JENy/rR+exBxq1Uo8aGJW+NJcBZzfZ5B4moqe3Vu7kNDctlXP9WzbB5pJS0TXFMP67Tr5tezdBp7+i3lQLUiXHM3HwdNe35NvwJOsu2YdGJXxi3uZTQNyYwUplP9IJEIm+D34gAVgS0I2/XD0zcb5y/YT2QzOsfnCHJWCxfH4pmaLMTWPi1mnO+vnw/0YGEpXG8XaQP+48I4MM+paxenMzKGruK1G/D1oeMy2BD6BsjCCSJtz8+T4J8vgZ5e7bywhFHvpz/HI7HNzNup+F76NSVTSFeFEu/+4LwB1H1cPEeWfhnz5oTZD1Fb96rH49x32XJGI2SsSoBe59ehLaUFABwkReMYzmuzULDZWKM72vduZrM6NUBG2zx8Kn7EFmRXxvHkdxHkgby9hnf72XOWRg5pg9+uhTCwmMZt3Qrc2KKaP+sL7PqMHRY7evDis4DPJhk1krvxeCB+OlSmLM4Tj9G5oo06NOHuR1NdSqXNTSa5em2+I/xMg2eLR8jM2wrLxw0taWDYfgzZWd8nGRnHrW0vXvbUDLOaWg0cw7p8BnTi1nGcOVYpZsZtzoPe3/j+jDO23wbmo1lau2Cz1MAtgR7O1Udh7OlK92cAef2jJZ/Nun6WJaMxt2ff/QHdfIpEi61w3+E8fvmyNQ+7VAfP1VLgqxq0qRnGel8hZg150kwFlraDrcNI/v0MY3s8+IIL5SXTrNKJEjhD+geJ8lgvolLISPV8Nq8QBYfxDvf7SUjJ5PcrBTix6lk8cYoR3OzHYFj6p7E6s4Rv86QlnAGOrvWaViw2jkwzLMVeSfOEGvY6SXsP01WhQq/Jhk6rAwNXoyvMtanA31cbck7cca0wzyfT0JqGbhYmVc1WJ+cj6a1Iz3lgWpdRn1NP/zZSH9X7NWXqX78mOrczW1oLuHoRYptnOgkOTAwUmfkkq1phYu7PFI99aXreHgpoaMbHnaXybthHvcb0B6l+iQJl9rh7S/fHhJFuSSprVC6OgA6lv9yBjy7MtcalP274sMZYmNqv8og5T/4aWb0hqTvDhNRIo9WLyEmjTTceKY/YK3kGU9I+0XyfRGEP5B7nCTj+XJpKCFhoazN1qJ41Hy8+34fLWBab4gLH4fb0H+wrcShacYxBKCC7ENZaL19WOIkjzVST1c8uEDS5kvkKZT0aeTwXHqP0bplGdfMbqYVU1hkhVLVFGulhKRDapRPeTPD7Mz0MVrby+dbTsTaw8w5Wv39pkm+rthfKya1sqQZTkpbhhpfTtLkWkF2ZhEePbryTNfmZOXewDwt1NL2bm1DGX8/ZxxvX+fceXkElN3d6GZ/ncIceaR62syLqN06suRJFfZ5l7hm9rW3YXS3dqiz89idex2lu7PlYeGc3PBTVqDO15+lqpNPkVCk4pmR7Zg70LX+Z5GtPQgd3o6ivft4PUMerGE73C5m1fEiPAZ4MGuMNx5F4ixS+OO6x0mygCO7drBtyw6ulMtjKib0VFF6Yh2vrjkN+Yl8sO90045Yr04j5qwT/iMdLe+IGuDF3h0gL5+VqEnKtaWbby1JzP4x/f2zBtD+H1CHy611odmfTIK2K0MDazh7saDzs6M5ED6aAxHjmdWjhLjvT7PdGLR3Y/yMQOYbX6OdzdpqDl1E7dYL/+YXSDprFqq17d3ahmBLt+H92fBafzb9eywfDm5J1o5klhvDKj/95w0fy6aXOqOJO0xkNQm0WjfzyS5SEeDXnKyUy+axliq8lZfJPqQj9mg+xR1dmSrdvvYezDDMNzHEF0XmQT4/bAzqWH6kAPu+T+OvqP9ZZOenfHC8Y4WT0r7quqxlOyTEZJPl4MOkPs3FWaTwh3aPk2RNhtCmFVwpWCUPNKnIn9PQePoxt7U80lCO9O9si4aWhAe64XSnDHtXlen+XIMZztr+JC2zwd4GNCVVjjAaqIzI+Hyc/H15Qh4ym29V6qMxLF75CwnXrNBln+btPElQfj/r64uSIFCST3aRFbqz+aw0j9Te9q5sQ4ByziUksWpLEiu/3cXroTt44bAk6Vw6xeKVMSxPvg5l+WzbWVbLE7NSOn7MLALtBQ7Lzrj8/DuivFmBTV83wn1s0Ora0e0pSQVNLtErY1gcU4COIpK2XDZLSOqENH69YUVxcj3PIgHd+WOErT6N1msAi3xlwdq2w2010SdKQZxFCn9wD1CS3MPV69BWNVUeaFrns4jJseOJ3k10vc5TSSdFKdrmLnTt4kJXxS00rVU80xEoLEdDcxylh+nKx7DXaJDmlOoVU1hkh4ub5CzP2gkXp3KKC+t3xlATdUIav5aqeKKHraHkStX54sCH80az4TnTJTftb+XEqkt5e88Z8PYhXP7ASY10/PjzIdbvq/vdSDNNvQ0NdCXlxKr1ryoDid/WEqsuJ3pLGml0ZVSVe7k1SzqUQvS2LFbLyoe5t0OnuYNLFxe6dnFA+1sFHj5KyZndLYrU5cQeTiFO3Y6AKvdjyyj+DUp/q/934mL6eWIz0lh1ogKfUb6yy+61237tJpRrxVmk8If2ACXJAn5ILcCh50gWDQZQMaqPqgnvSZos33yKIpv67eQsmeTrir06nZmfHmbip4eZ+OkBki61wsPPFkrUnCtqhc8QRzwArO34sI8SXf4F1ssnVEU561Ivo/R/inBnACtefL4XHjdz+aVJj9zLiNyTCzbGBFhO9KnLKP28ebG5vsSjjwdPtC3hzPFq7kmm6p+yrLrzrllSxkVWNmLA5KbchvVjeLrzKdPTnXVScp3I5DLzMuuOeHcsI2278btzmIkx+ehcOzLevCagY2V8Qw5Iard+42GS7nRl0uQmvIQd9Cph84KRn6AKwsPmHifJqaxLziQ3J5N3+jpAl/Hk5mSSm7yaacCRN99lY0EXJn+RSUb6Tpb2tEUrn4QFkyYFkbhsAonDlWDvxaxlE0hc9jSh8ooARWeIPd0Ulywd6O9uR176ecmlNx0/Zl7G0dONkZQx5+uDqF2f4dv3x5L4/nCeuH2SlevqdgaVtCuB9dktGPrWBBKXjWeG52/ErU2rQ4Kt3/rQ/5zA9D5hZwLRF9sxI2wsByLG8+24VmRtTCCs2qcfdSw/kg+eXqafZlTOz/TaMFjWzJK6tm2ybVh/CTHZZDVzI3CwjeE3lhNIXDYcP3voPFy/zHsm1X54pxzoSmdNPoczJYXJ+WTdUuHXX1JmoE7O4teidvQbUfu06+X2dSJ2nAGvfoR2N5TVdTtY0usZnhvSn67yckF4yNy3zgRq5DOIAOKJS5MHHl5Ke1s63a69J5RqWVsR8BjESXszMXSQUKVTnfNH9B0CNIXq5isIdfDcst2Edc8kPGg2e+VBQXiIPJhJUhCEh9ho/rNjHs6H3mTKkuPyoCA8VESSFASh6amUuBSoKZSXC8JD5h7fkxQE4X+CSJDCH4RIkoIgCIJggUiSgiAIgmCBSJKCIAiCYIFIkoIgCIJggUiSgiAIgmCBSJKCIAiCYIFIkgJ0H82IAfLCu6UPY/8aiIu8WBAE4QH0B+xMYBCvh/XmwrdRbMs3lS7anMLzXQxvriXyXsA/WGsKW6S0t8VbcYtYs67ZrPBXNoPr0m7mrPBXWlGs1pElqennbItj5aHIHfJlcQA/TyWjXf+EOuMS285XVPYD6+dsi6LEvCs7P2dbKDIfpcLDyRbHMvN6SntbvCV91v1mtqwSqmCiVr6Mze5/8tonpn4AlSo7gp5tg/LmDbbvvEGSWd/cVvR73JoW0qLfbrMnR7+OlCoFPWQDdFw7ozVMI5CwH0NwP7mAKRGVAyPWztqKgLZWFErXn7UVAU6QfakCeydbXDHfTtL1J18feubbQ2nfikn+rVBcvUx0clllec3bQf9dMFsXADr5d0YQhIfRHy9JTvmco2G9yQl/kuA1puIeg4Po4gA8O5uo/gW85/siX0nbWaDs35dNQbD+34mmAXg9fdjzsiNJi+N429jpt68vByZ2IGvDVqZXjtLhwIqw4fgpytFVAFbNsOEGCd/tZU4GgA2hr41gpHMZeZdu4tC+HfYXj/H2p+dJMLRtfegHJu6XTm8gbNzB65WdYjvyZfhzeOTtZeAqU8fpkyYFMatXM3TaO8Aj2ChAnRjHzM3XJZ2x9yFk3Uf0Uy9jzLytlaX9XurHe0GOaAqK0dg50cn+GjvmH+b9bEOFx7uy7f/1xGzcj7xj9H/zAgAz/zOGid0kI9lTRlLUbmbFGd4+OZ81ywZwadkw/rVDUq0mnj7sefkx4uYdJEJa9jysCk+j8xsTGKlUs33JQSJKqFz3xvU3fuxzzOptp98GNqC7eQtQsy3sOJGA/+D+LAl0QXvlMrqW7XC8mcXyZWmsv13bdujIhmX96KwzbGOj/F+rjsEoCMJD5493uXXNP3jK3TxBAqTv38G2LTvYVlbXcUX01EfV5Fm3w0cy5s/Q7i7YFxWyXzIqxoxeHbDBFg+fqkNG5e0zDFwbGs3ydFv8x3gxEvAb7s/ItvmsDo9l4qcHGbEwgbz2T/KPakaAsMjXFY/mYOPqWnXopoIkw6C5mxm3Og97/z7M7SiJBwXTzzWP+P+aEiQ488owR86t3cGoWUcIfjmGHRfbEDRNMjL9YzYodBfYMOYn+htfhgQJYN/MiuIDO0yxMZIECXBsMT8kQd/n5zXtZVdrJQEWRsiI3rxXvy72XZYMKKxPkLR0Y+7wVqStjmbIBwcZEbaNOJ0XU5+vflpVlZG0VjJAcXWDFAuC8FC690lycAjr4lL0Q2RlpRD/XQgBACxge+oh4g2xoz/v5GhWJrlZh/jGMA5zh+kfE3tcP9SWeVtg0SYyUlMMr718M6Vyjo1z+zynztvSydO4w7RlWLdWFGfnE1tZyRG/zpCWcAY6V5OsJNYn56Np7UhPw4C7muwc04jyt9X8crwQWtR156xPzpw6SdojHejfUx41UWfkkq1phYu7qWzCsJ60zk3iI+m4jh3LSdtzjJ82Gwt0nLteDo9IviquDrQoL6P6Ab8ccHkMNDdqPhjZGZvJta59mKKSRxpBUwa9fes93qLfgI4oi86wNcNYomP5CTX27q5MMq8qCML/mHucJMfzTcRUelxfz+xnPRk0N5rSnlNZ9FFfQIHiUTj9wQheii2ijUrL1qHPsTbbCd9npwIhfDp7CIr4uQxy92TQ3D3QZypvGQdIjP4vIWGhhIQd4MqjDiikV/saaXfOZexdVYwEaNmBTk7XyUqSjGXY0xUPLpC0+RJ5CiV9PCWNZSb5umJ/rZhUHFC2gqJLpWbx1VsO80KMqUzRwpahSuOrOebDDDvi5wpZaVmkXWhGJ2/LyVXZ3Y1u9tcpzDGWBOLXyZ7CC7L7gudv8OGXV6i8CmrXmgAPW86dLqqsorR5BGw788qmv3B4y184vMqPOd2M0UfAqgLls2P0sU1B/DjnsaqD+e4+R1GFEtfh8kAjXM8i7rwTAePqN3iwR8sW8PtNyUEPqNU30Ng/RmdJWU1sWkq3k41+kG1BEB569zZJTg3Ct81Zds9eyrZ8uLD9Xb5MLKJDz/F0AKCEku0FxJWWwO1SruQXcKHEmDCWMrKHJ4Pm5tJlTBC9rRI5XQgduhtOM9Pi9ZdTt5TUeaDmukpKuIi6tYpnlKD0c0Z5rYBfJEM2vti7A+TlsxI1Sbm2dPM1T1adnx3NgfDRHIgYz6weJcR9f5rtZjUsUz4VyPwZxpc/PtKHT3q64vHIBZKSYXl6QdUzH5Wffr7hY9n0Umc0cYeJrFxuJ2xsQPt7TUMZ2fDvxf3pdiWJT77RVZa65F7iVEoKH0z/ib/O/IUkOvGXWZ3wA+AW57LOcWT9dv46Zgvvx1zHaeAAFlZJhlf57XcFLdrKy+vJLJFpidh6Go2XD7NkDw41PTtaV2ZiO3xGSbdTL/0BlSAID717myQ92uBAF57fZ7hkmpNJ1GAnaOVEoLxuFSqmfbGXjPQNRM19lZmvTMW3tbzOXVKST/alVnTqbcPUHko0+QWSJOdI/862aGhJeKAbTnfKTGedBuqjMSxe+QsJ16zQZZ/m7TxTTNFMUrEalfczw7YyMGwfSRpT7MXeHbC5aYUy0I3wlhVo7F14QnrP8dIpFq+MYXnydSjLZ9vOMslDO7WbGDqIoMdy+WL+BY5IypP2neUfERfYUQzqgmvM2nQWncqFoQCU8WHESd7ZWYGaCnZ8fpwjhQo69bJ8ltukzp8mJrsV/mOb9G5nLeT3JA33OgVBeOjd2yR5SYO24jRrn/XEzV3yqsuTpmMWMH2wLXFv9OLxASMY+ucR/HLPxuLR8WPmZZRuvnRTlpGdLLlE6qmkk6IUbXMXunZxoaviFprWKp6RJCvtb+XEqkt5e88Z8PYx3DMrJauwAiel+YM+c18ezc6JrczKqudAH9dmaMpt9PPtbIOmrBUeT9qZqtzWEqsuJ3pLGml0ZdRw84u1NZkYOoSZ7pf5Ym46G8x+/mHDxMmdeKWPpOj3O+iMX6U+bfl/kx8znFUC6NDdAhp7+buwHA3NcZReR1U+hr1Gg+SYA4DlMafRuHvh01wWsCDuUgm0aml2Fu7XxRH7oiscpxxNGTi0tJVEH6O1fRnX7tn3TxCE++XeJsmoONK1XoyOmEEPAFSMivye6LBB8ppVOShQYINDF/2THj2mfEy/TvJKd0/SiUKKO7rioVVzvPLnF4Z7jOp0Zn56mImfHmbipwdIutQKDz/pTtUg9RQJl9oRMEafGKOTcqGbF+GGB0eVzl3x9wR1+nXzdtXxdKWb/WXiPjbO9zARxy/j2EVlOKOTKmbV8cson/KWPFS0jsKr4NT2ebOaAP1e6s8rvX5nx/upfFvl6Rwdjt19eGFyJ/oBYMXMZzvSouCi/p7erZb4/qUvLzyrr6306UKPjlrOSQ8sAOhMa3sN14w/K6lNiZpzRa3wGeKov99nbceHfZTo8i+wXl73fBbbM+9gYy0PVE994CxZCg/GD7fV38t0ascsv3aoT+URi47Duddx9PHiRUPSHT/ek85lao5XPuhTmz5MmLeYaUHyckEQHnT3NkmykjeX7uCK12y2Z6WQkb6XqME2pJ84K69Y1ZqVrE3U0S9kL7lZmWyf3Z7Sq6CwNTzKuGSn4RLueNxxoF+o/nJu7BJDOMZwiXd8F3Doyzs5meTm7MQQrp06n6wi0OXns7qy0IH+7nbkpZ+XXMbUn3U6erpVc19Kx/Ij+eDpRWhLUCcns/KYFQH/HK+/b/imF9q4vSxMlberapKvK/bn81kl6VQg6dBF1E6uDJNecjVIiMkmq5kbgYNNZ5N7ctS06PAEkl+3AEpmjnLGxsaZoP8YHszZ8hcObxnGcsOjxJ9EHORIMx8iN43kl40jmagq5Kfl50gCOHmG9zdexeP1Mfzy/Uh+XOQFBw6xaJfZTGC6G8qb50j6UVZuURlzvj6I2vUZvn1/LInvD+eJ2ydZua5KFgdg5fbTZpeWJ00KInHZBBKHK8Hei1nLJpC47GlC0T9V/O/v0mDAaDYtm0BiSAAed7KIjtHfh92+OY7oi0pmhI/nwPsTmNtTR8IPyZLvgR1+L0/QT9/4ekO6EbrRb0ggA3tJigRBeCjct84EOvQdghcZxCRKf39QB659CexSSsz+0/LIQ8wKf2c4d8nU2849oZrNV+uGca0+P+qXcrRhUHMd8RY2oZ+PDZo0HVVPFpW8uWYjgy6bd2JQV0p7WzrdttCDUCN5ONnSQmvHSzOfwY8cVn96kpXG38NaWxHwGMTVuyed2Xx1KBh+7MO0/8pjgiA8yO5bkhQeDH1DNxL2eDbhf51Pojx4l7gEf8rXk+Hbaa/xg4UEe99Z2zLLrznRR6U9FDWM97yNRD1bxJfDXuMHeVAQhAeaSJL/85RMWPYZQ36bz7RFpr5b756XiNr0DPkfTuajQ/LYH5USF5Wawgf1gEAQBItEkhQEQRAEC+7xgzuCIAiC8PAQSVIQBEEQLBBJUhAEQRAsEElSEARBECwQSVIQBEEQLBBJ8l5SBTJiaH0GcRIE4cHXh7F/DWzaAcSFB8ZD9BOQYL6J+xf9jCN/nI2m+9h3ZXUs83O2xVF+SHDnFqcuVWDvZIsrt4iV9KTi52yLoqSchFtWBLS1olCtI8sYtLYiwAmyL1WAvS3e9nfIr4xb4a9sho2mnDjJiB3Qn5AN7+Kbu5IJoRulAcCFoHXtOBN80jQPKTsrWnaGklOSnl7srGjpbuqctDxHi1bSEbl1FwV2zW+b2hjq3y7QUlZshV0va6p0bVqspaQAFN4KbG/o/62nr3/bbB72+K/oDd8dIEE6REhTCH6cV7tf5rP55j2IK7wV2Mo7Sq8wfEbHZrRUQVnKLSp76lMpaKm4TcklzNaVmd9uU3IW8/VhnKaRSkFL837owbjObWuY71nZ9pJvQ8N6Nc5Xv20kYQPF4Hb06PwI105c4Vyyqb35+rhjvgxGFtZlU2g7eyDPcYL1UWZfdD3VY3gEtsT68lVyfvnd9L1xbEZLlzuy9WBU8/eyxu2A/vtt9ndQOS/Z9pUybOsav1tGFtdlIGE/huB+cgFTImTjswoPvYcoSaroN/xx2ijA++9hTLOPxS1wvrySBQ6sCBuOn6IcnfRvU5PJ8mVZeLwxgZFKNduXHCSixFS/9aEfmKj2Yc/LjxE37yARxnaePux5HlaFp8GkIGb11pHwcSxzzgO+vhyY2BXtiV0MWW/q1HvCf/czvdU2Jk+JQv4nBir+8pOKnL8kkiIPAYpX/Xn1OUh4M4FjxvEgB3Vn6qwu2JXfpoJHUNjcofDoUX6KvM5toNcHo3lGWcCuaUlklRmn0YYLO7by0yoXgtb1ogOPYGXbDGudFu0dKDl+mPVR8MzqwfQimx9ezDAsq4q//NSda8v38Eu8canseWZ1X1glLWsiU/sy27uAqLekv7631y+XQr+slW6c4afXz3Jlal9mBzlxYUcMP626BYDLv4cwwSmDqGgFk2Z2pSXAI9YobEBbbkgneSl8Nt+Kv/zkh0u5lgpjHW0Bu947SVa2YTq+zdDqpDP+nZRPDpDgWcN8Jctf7TZEJZnvI1jZPEJZVhKb3i+kpAygGb3+M4RnOpdzRQ2tlY9SdvwQq/5zo5r1YY2CUo59fYCE/ZWztbAum4bLv4cwjERWvW+eJO2mPsmUP7emrOAaZXZOdLAr4pdFx0jJNizPoBLJd0uqpu+lpubtYNOdqbO6wa/7TctTOa8b+K3rZRiz1hqFLdwuv63f1jfO8NPrV+hR03fL+L6mdfnkfNYsG8ClhnbxKDyw5OdWD7ACjuzawbYtO7hSLo/VjfnYjFsZuCyLaGPQWknAiIaOeWgaomqWnxs2t2VHyap5DPHTkbyxugRpoCkx/TGaaUYv7zZAGzoHygefLOJg8G4+C/6ZqEUZ3PYbyPOvSurYtKP7SAAFfj1bc7ty3ORCdgTv5rPgg6Rr4ELsbj4L3m1+RmDfBf+p8vnJabjW1AnSoKTI2GGqOeOyVr6kOzGs6DDIveplryNnWW+sH1sEmrNsMb6vPCv4nfQvDGUTY/jluoohU9uZpnE+1Xy+wdIzaAvzrVTTNjTO92c+mXGYAucnef5fhqHS/taTp53V7Jixn/X/3M8nn52FPr3wf8LU2rQ+dvDDaQVP/q0b8mFWLa3LplB6SXYW2dGVoKDWnPt2N2vePMZPr/zMrvNOPC1dlxbV4XtZ43aAlj170KtKB//G6e7msy/OUlL5d2P+/an5u6VncV0eW8wPSdD3+Xk1fA+Eh9F9SJIL2J66iaiQ1cSn6kfmyNgcYoh58frXe8nIMpQf38SiwbLmd4umDHr7GsZ6rB/NpcvYd1Ex1FqJn1sRebLOPl1e6EO3G5nEWjzCLGR3ZHb1CbSjCnfnqxw7chUXbyUKedzoVD47Dlyl7VOmnfWVSzdQ9WoHT7ji7lBE4Q1ZmxpoNVpcnvFEPzBZdTQkRCaRLi9uCtuS2LS2mkt4tfqdEroxcLo8EdXXLVJSi7B2aV3HHV4t863rNiy+zp4tuVh7e9DLDnr4qijLOEuO8RLs/hzSrzyG+4Dqp1B4qIASx9aGMyaDBq/L2hWuPcDubbLCZ11w0eRzUvJdzzqYRUGFLW2l9e4KLSVaJ558sS7jsTZALetyZ2wm17r2YYrlPxrhIXQfkqQCxaNejBrvwJFP5zJ77lwWfqM/HQn4eDlv9dUSM/c53NzH8UmWismRq5kmn0QDKVrYMlRpevlJb1JczyLuvBMB4xz1YwrWR+FFsuxcGfbnjngUXSRfNsLwOI/O6C5lsdesVKqCsmrv0YAi0IW2lwpJ2nOZayoXPCVjKstpT1+nxL5l5c5Ie6qQa51UPBnggl3OZa7VcRBigPKsDNLvuDFQemYqoz1VzT2wplB8S3I/1Jz1owpa9jK9FGbrQ0N6/GXaPO1JpxrWU+2a0aunE7cLr5kOXKybmc23pdmOsOb51mcbsuM6V7Cn9RP2tG0rP1O7xQX177RWys8V9VwGqGhZfI0L0sIa1mWjVXMP1cXZHoo15gd8P59ly/z8KmdlDVLjdqjgXPxZbvfqzpPdpOV1U/N3qw7rcvc5iiqUuA6XB4SH2X1IkgClHPliHG+v1F8+3bg9EQhiyhMqLux/l9nbC4DTrAjdTrpdb4bNlrdvGOVTgcyfYXwNINhVGtUSsfU0Gi8fZjlJyy2wf4zOlW8uk5TXHP9+KtSZ+ciPNVs0A125fNDhumhGD+82XDlVgDalgJwr7XCvOkayZeUF5Fxz4Um/5pw7XiSP1qKEX3YX0Lpf9Tv++8VlwDNM+pfx9RR+Pc3j2lWppJa74T/FcnKv3qP0eGUYr64bxqs//pln7PLZveqyKazsLpnvM4wYby9tXMN8G7kN5e4AVqaDsA5DDcu8IYgJXhoSvs7mmlmDP5hatgO5GSRkt6ZXcP3PJmv7btXuKr/9rqDF3T9lFu6h+5QkoeopSBsUCtCWSQZsyi+gtEyBg7O0XsOZ35Pcyxz5WM/nTxOT3Qr/sXW7yCa1MuUCOusiTh2qvPHXeB2VdFVp0dop8X3ZGYXuFi7dari3Y2Ule4LvFimnrmF96yJpFi/11uD7DJLLXBk4/VF55L4xv29U3ZO1v3NgTwGtB/akc72+3b9z9qdfWP+fE1y4CYXHM8mRDoQpuxdW9YlOC/Ot7za0k2zD22At+wwKWyu0v5keYy489Avr/3OYlGtWlGVlceyoWfX74xH5Y6JNqNbtAFk/ZaD16ol/NU/C1qT275bwv6heu5G7SwcVoLDrKylricIatFX/Du6a5TGn0bh74WO8NFlYjobmOEqvwSofw16jIU9SRHIW67elsNXCff0GedYFl7LfqWjbjo4e7Wh5pxw6qfCwcGbn8pQLdgWFZErKtDtPs+ens9R0lciy30nYX4iD5D7nQ+HHDJJvuODrXf29O0vKi7WUpFxmz8GruDxd0/1YC6qbbz23oeJ5F9qUXeJMvAb11Qpad5SeET1KRxcFJZd+qyy5/buWkhQNCdtzoVd3fKs8tHJvFeZc43ZbBzpJC4Mf59Uvut+779CvZzmaY4evX/WXpQWhPh6gJLmOrSeK6NB3Bq/7AKgYFRmEr9Vpjnwnr3sXnc9ie+YdbIyH8yVqzhW1wmeIIx4A1nZ82EeJLv8C680alrHy4HWSzMr0sq9oaNHKdHG2rnp5t6Mk4wRb/nVM/3rzBGfvuND1z/KaVrSe6keQbwUpW/PRSkPnb5C+9XdpSf38mMqxa82q/41ZDUa8upg3g/vIi++R30nYmY/WpmFnNNr1GWThRn9LD+JYVHW+dd+GoPhzN/4ytDWFv2RSAGTF53PbuzdDhumn1/LlnvS0v0z6Tv1PTczsziTlUhv86vPQypPBvLnwVUbIyxvj51zOVrjy1HTDgYKdgif9XbldcKn6B9PukqxVGVyzqe/2a6zOtLbXcE16BUJ46D1ASRI2vhLK2gIv3opOISN9L1HDIS5qFu/lA0xlXbL+qdd3+jpAl/Hk5mSSm1z3B3s6D59A4jLJK8yHSfJKwMrtpyWj0Zcx5+uDqF2f4dv3x5L4/nCeuH2Sleuq+dW3BZtTzqFzcavzcgJgp8K90++cS5CeRl8nI+c2nXyNl+va8cxPo5n903Am9bciaXk8v0h/I2eRir/8NJrZPw2mlz10CBrN7J9GM/Xfsvs7ANzi2K5cJP0U1In3wECG9GvA0xO1MC5r5Wu1hTOUHZmkXJIX1lHZdY4m38Clv+QMupOf+Xx/GsIzg8ybgWy+ddqGj9Jrln6a0//mROGP+yp/b8nuNH7a+zvu04P022eYgqzvk0ip/J2l1C2OxRWg6O5RzU8gLHDrz5Bhz+AtL2+MsuvsWp0BTw9h5rphzFw9BL/yVH764Lqpjn03Jpity9H8ZSp1+17WdTtk55FwyuxwsVZ1/m5ZMt0N5c1zJP0oDwgPswezMwHXvgR2KSVm/2l55L5S2tvS6XY5CTflkdqM5j875tF6//NM+1D2+5A/pED+s2Mx3TLmM2ZejDwo1JsVdt5YfAK6wf65lgN/hR8GTGaFPNYErLsosLpk3hPUH5eSN9dsZNDlZYyZt1UeFB5iD9SZZKX8xAcuQQKoNQ1JkABb+WhDKsqh85lQ7xtdD6HRw+lmn8eRH0WCbBqWfyLUcD68+WRnfkvafVcSJMDts/8rCRJcguczpG0qG/4rEuQfzYN5JvkH1XfOWt50+4UJM7+Rh/5wXFRKCgv+F86aH2IqJS4F6nt6r/CP6SWiNj1D/oeT+eiQPCY87ESSFARBEAQLHszLrYIgCILwABBJUhAEQRAsEElSEARBECwQSVIQBEEQLBBJUhAEQRAsaGCSHM3Yv3rICwVBEAThD6VhSbKHI4Ne+C9RwfUeeVEQBEEQHhoNS5Lp3zD7u1y6vbKU1/8XepARBEEQ/ic1LEkCfL+YPfmeDJkzWh7Re3I2UevW8p/p92skCEEQBEFonIYnSdR8lJRJa+9AJshDAN498XbzxLuXjzwiCIIgCA+FRiRJIKuYa/bt8XlSHgC+eYnXZr7Gy/8D/ZQKgiAIf0yNS5K7iyjFnhZu8oBedtJx0XmyIAiC8NBqXJIUBEEQhD8wkSQFQRAEwYLGJcm/KXGiiMLv5QGA0UxbuJhpQfJyQRAEQXg4NCpJ+vq0p0VBNnvkAQB8GDgskIG95OWCIAiC8HBoRJIczd96OZJ96FOS5SGAJx1QoOHaWXlAEARBEB4ODU6SfRe+hLdmN1/9Vy0PAeA9pBMuhb/yfbWXYgVBEAThwfenzl08/k9eWKsei/nq3RbsmTWbHwrkQSMlLio1hRbjgiAIgvBga1iSFARBEIT/AQ2+3CoIgiAIf3QiSQqCIAiCBSJJCoIgCIIFIkkKgiAIggUiSQqCIAiCBSJJCoIgCIIFIkkKgiAIggUiSQqCIAiCBSJJCoIgCIIFIkkKgiAIggUiSQqCIAiCBSJJCoIgCIIFIkkKgiAIggUiSQqCIAiCBSJJCoIgCIIFIkkKgiAIggUiSQqCIAiCBSJJCoIgCIIFIkkKgiAIggUiSQqCIAiCBSJJCoIgCIIFIkkKgiAIggUiSQqCIAiCBSJJCoIgCIIFIkkKgiAIggUiSQoPrG5Bo+krLxQEQbiH/tS5i8f/yQvrQmnfikn+rVBcvczu1DKSbhvLbfG2N9X77Xo5CTeN76zwVzajhSmsp7tFbFGF6b21FQFOkH2pArWhyMPJFlcbUxWp4ivlFDY3n680Zly26llYJoA7tzglWQalvS3dKCdOI6nT3IahrUzHGjqNedzDyRYXrayNkaytkfk6s8SLgDFuOBjfaos4sSuRC+aVGmkQr4f15sK3UWzLl8fuLpfgT/nsBVv2vPkSK9LlUUEQhHujQUnSf3B/lgxxQlNYRKldWzq3uML2jw4TUQSTJgUxq1czdNo7wCPYKECdGMfMzddR05ENy/rRWVeOTpITyf+VgV9frHzrNyKAFQEQtziOt0v0ZXNfHs0oV/TTbG4DldMo49dv9/LrU9L5Guljc85Kiqpoz7fhT9AZwKoZNjagu3lLH9JksnxZFtEA2LDkrbEEkMzrH5whydh88NMkDm9naPMINs2t0GQmsPBrNQlA6BsTCCjexZD1pcYWJmZtTfL2bOWFg2ZF1VhMbM543LVatBWAlQKF9jRr545j4X553eqNiviema3iGPraSnlIb8rnHA3rTU74kwSvkQfvoifns2bZAC4tG8a/dsiDgiAI9079k2RLNzbN96F4w1amJ+uLZk0fyySro4xbqSZgUhCzHFPp+/F5AJTdH+fbl9qS9nEsc853ZMOynlz7egevZ5pP1sSQjJxBvX8z43bpZHEHVoQNp/WhH5goSQaTZPNtEE8f9rz8GHHzDhIhj7Xsyqb5vii5TOziOMIMyZvBT5M44AbLw9NYD+Dkxqa3fNFsj+aFhDokSWnbellMbM5QrkY8SfAqgEFE7fucUb+vY9DId+t0Rjntu2O80yYWt8D58tB9NeLD3YQ47WPClGUUyoOCIAj3UNVrfbVQ+rVHqcnlF0OCBFh+9DR5t2zxl1Y0UGfkkq1phYu7PGJBS1e6OV8m4ehllJ4q/OTx+8RvQHuU6pMkXGqHt7+F674ARdcpvGmFTQ1V7o54Zh8/C+27EAhM/mIvGZsXmMJTPic+dROLABZtIiM1hbf6OECnkWSkppCRmsL2RYa6hrj+tZdvppgmAwvYnrqJqLBNnMzKJDcnk4y4z5nmaoyrmPbxzspYbupe1oUMkk6gFsEM8XYkO0kkSEEQ7r96J8kA55ZwvcT8zCc1i4lf5xouS5pTdnejm/11CnNMZTYtbRmqNL5s8JDU9/Nvj/LSRdYlFFKsbM8wa0mwNtYKyXRtCajmHmXD2DC6WzvU2Xnszr2O0t0ZpVm8GU5KW8b7tufD1wbid+s02w+ZVaiBvm3lcjtZySvU0SCi+nSBi2eJARSPOqB4VGEKWylo+agCBcDCcXTv2YsPjpfCue1079mL7j17MXKhoW70fwkJCyUk7ABXHnVAYbZIChSPetHP6yhhQz0Z9PdV5LQexPTQIH04ZDlvDVUQN/c53NyfY3Ys9Hvpn7wjnURNhvWhk72aS0fkAUEQhHuv3kmyTlR+HAgfzYHwsWx6qTOauMNEVl4FtcNnVCDzZxhfvRhZ2dCG0Z7tUGfmk6TOJ6tIiffAymDtnL0l0w1k1nOVj7U0TksV3srLZB/SEXs0n+KOrkyVJu/m7QgY48df+nbFp0MzNNfLkF8ktsjejfGSZZ4/2lleowYO9JtrOOPL+pxRj57kq4/qdqm1RmnxbNuyg21bStDKYwCUkhOzlG35cCFxKXHZWtqoDM+hLh1Hd4/nmH2uC6PGPA7HM7hgpaLHVPk0LHjMBhu0aI7JA4IgCPdew5Lkn6xlZ1Iyl06xeGUMy5OvQ1k+23aWVT4hCmUkrd3KwDDj6ziRxlBLFd7KcrR2KsIDlSh0Ojp3U9Y8L6mCJMl0tzJuczX3ARvAz78jypsV2PR1I9zHBq2uHd2eklS4WUD0p4eZ+GkcQxbsI7ttH6aOtJVUqIEmi5WSZZY+wFS7UpLXhBISFk2OFi4kRvFeHR/aaUol5Vownm26TuWbuBQyvl9G6KuvMvOF3rSV1RcEQXhY1DtJrj9XBE6PMUpa+HQfDvzbhxeN729riVWXE70ljTS6Mmp43W7QKf3ao7xZBk4udO3iQuuKcnSuHZlUn0uud8Ew93boNHdw6eJC1y4OaH+rwMPHQvK+fZ28KxU4ujjKI3eF9soOtm15l/f2FdDh2dm8Lq9wj40KfZkA6wO82uNJngocwdA/xzX+zFYQBOE+qXeS5NgZ0u64MXS4rT5JWNuy5Ek3UKtZLa9LMauOX0b5lLcpgdZgag8lmsxjTPz0sP61/BhZt1T4PCmveQ9Zd8S7Yxlp2w3L9OlhJsbko3PtyHh5XcDP0wN/V8jLvCoP3VVHonaQzOM8/5H+smf61VJwcectVwAVkwe4m35TaZB+XVqnabS0sYFH7XF3BfBi8qd9qeszWwB8r6YIJ1z+Kg8IgiDce/VPkreLWfhDGvQLYlPEaA5EBOGvS2b5umJ5TQASYrLJauZG4GDj2aQdfi9PIHGZ5PVGx8pklJ0svURaTFLeLTx6Wjhrk+vYz3y6y4JY4SmvVD/Kga501uRzWPqTleR8sm6p8OtveG/vxSzDPFdMdkMbt4u39pvuStr3Hi5brqcJrQya2hpfGwZXNq27/Cg2JhbRYdAMpgFHotZxpOxxXo9NISNrLzPtriBP20cipXUyOfndDH1gyU79k6k543HHgX6h+idVY5fIJlCNtV+t54i2L+/syyQ3axNvuZRyFQWKlvKalsSQU2CPy+N95AFBEIR7rv6/k5TwcLKlxY3aerQR7qcOfQehKoznSA095vQYHESbqzuIS5NHGq5D3yF0KdvToGm6/HMta4cU81HQbHbKg4IgCPdQo5KkINwd/QnZ8C6+mQuYsOiwPCgIgnDP1P9yqyDcdYdZOu9r8nvNIKyHPCYIgnDviDNJQRAEQbBAnEkKgiAIggUiSQqCIAiCBSJJCoIgCIIFIkkKgiAIggUiSQqCIAiCBSJJCoIgCIIF9+0nIB2CQ5hmtZ2Fa07LQyZTPid+bhvieo7DONShJUp7W7yrjB95h3y1jixrKwLaNkNzRdI7UHMbhras4NQl6KRsRgtZSwDu3OLUpQrJCCY1scJfaUWxWkeWscjaioC2VhTKy5wg+1IF9k62uFro+724clmtGOnrTJ82/0dmgpr1GnnN6tW4PprbMLQV+n8bIkp7W7wVt4gtqjCUmOabm3SZ1ZXl4Odsi2Pl4ZVhmsa3zW0Y2qrqsddv18tJuGmFv7IZNppy4gyfQ7+c0uWy0PbW3dyG+uUytTf/TPJ1qf8sxnfytno6w2f0cLLF1VqyDIbvos5sGvp5dMO0XqDqujROE0NvV2bTxfK0q+PnbIuiRFJP2pYatoMhZvp+6vk52+J4W/r9EYQ/hvuWJBf9nMlkonH783x5yGTqak6GtmG3+wjelsdkxo99jlm97cCqGTY2oLt5C1CzLew4kZ4+7HnZC07sYsh6Q9+wg58mccANlodfIzD8CTqDrC2gyWT5sqxqB5OuwteXAxM7kLVhK9OTDWWePux5+THi5h0kwljP04c9z8Oq8DSUL49mlCvAI9g0twFdOboKgDJ+/XYvc/JbsWLes/g1L0Vd1hxl60fIi9nJREm/sJbUuD4GP03i8Hbk7dpWOa1Jk4KY5ZhK34/Pg7VhvlZF5F0DJ1cndEn7mL7xOmocWBE2HD+FYVmtmmHDDRK+28ucDMN6Hd7OtA4N8vZs5YWDHdmwrB+dzx5k3Eo1amxY8tZYApzVbJ93kIia2l69m9vQsFzG9W/VDJtHSknbFMf04zr9uunVDJ32jn5bKUCdGMfMzddR055vw5+gs2wbFp34hXGbSwl9YwIjlflEL0gk8jb4jQhgRUA78nb9wMTKYc0M64FkXv/gDEnGYvn6UDRDm53Awq/VnPP15fuJDiQsjePtIn3Yf0QAH/YpZfXiZFbW2FWkfhu2PmRcBhtC3xhBIEm8/fF5EuTzNcjbs5UXjjjy5fzncDy+mXE7Dd9Dp65sCvGiWPrdF4Q/iKqHi/fIwj971pwg6yl68179eIz7LkvGaJSMVQnY+/QitEpH2xd5wTiW49osNFwmxvi+1p2ryYxeHbDBFg+fug+RFfm1cRzJfSRpIG+f8f1e5pyFkWP64KdLISw8lnFLtzInpoj2z/oyqw5Dh9W+PqzoPMCDSWat9F4MHoifLoU5i+P0Y2SuSIM+fZjb0VSncllDo1mebov/GC/T4NnyMTLDtvLCQVNbOhiGP1N2xsdJduZRS9u7tw0l45yGRjPnkA6fMb2YZQxXjlW6mXGr87D3N64P47zNt6HZWKbWLvg8BWBLsLcTyBNYS1e6OQPO7Rkt/2zS9bEsGY27P//oD+rkUyRcaof/COP3zZGpfdqhPn6qlgRZ1aRJzzLS+Qoxa86TYCy0tB1uG0b26WMa2efFEV4oL51mlUiQwh/QPU6SwfoBeVMNr80LZPFBvPPdXjJyMsnNSiF+nEoWb4xyNDfbETim7kms7hzx6wxpCWegs2udhgWrnQPDPFuRd+IMsYadXsL+02RVqPBrkqHDytDgxfgqY3060MfVlrwTZ0w7zPP5JKSWgYtxZGVz65Pz0bR2pKc8UK3LqK/phz8b6e+Kvfoy1Y8fU527uQ3NJRy9SLGNE50kBwZG6oxcsjWtcKnjGGDqS9fx8FJCRzc87C6Td8M87jegPUr1SRIutcPbX749JIpySVJboXR1AHQs/+UMeHZlrjUo+3fFhzPExtR+lUHKf/DTzOgNSd8dJqJEHq1eQkwaabjxTH/AWskznpD2i+T7Igh/IPc4Scbz5dJQQsJCWZutRfGowiza76MFTOsNceHjcBv6D7aVOFQZA7HhKsg+lIXW24clTvJYI/V0xYMLJG2+RJ5CSZ9GDs+l9xitW5ZxzexmWjGFRVYoVU2xVkpIOqRG+ZQ3M8zOTB+jtb18vuVErD3MnKPV32+a5OuK/bViUitLmuGktGWo8eUkTa4VZGcW4dGjK890bU5W7g3M00Itbe/WNpTx93PG8fZ1zp2XR0DZ3Y1u9tcpzJFHqqfNvIjarSNLnlRhn3eJa2ZfextGd2uHOjuP3bnXUbo7Wx4WzskNP2UF6nz9Wao6+RQJRSqeGdmOuQNd638W2dqD0OHtKNq7j9cz5MEatsPtYlYdL8JjgAezxnjjUSTOIoU/rnucJAs4smsH27bs4Eq5PKZiQk8VpSfW8eqa05CfyAf7TiMdXbLR1GnEnHXCf6Sj5R1RA7zYuwPk5bMSNUm5tnTzrSWJ2T+mv3/WANr/A+pwubUuNPuTSdB2ZWhgDWcvFnR+djQHwkdzIGI8s3qUEPf9abYbg/ZujJ8RyHzja7SzWVvNoYuo3Xrh3/wCSWfNQrW2vVvbEGzpNrw/G17rz6Z/j+XDwS3J2pHMcmNY5af/vOFj2fRSZzRxh4msJoFW62Y+2UUqAvyak5Vy2TzWUoW38jLZh3TEHs2nuKMrU6Xb196DGYb5Job4osg8yOeVA6PoWH6kAPu+T+OvqP9ZZOenfHC8Y4WT0r7quqxlOyTEZJPl4MOkPs3FWaTwh3aPk2RNhtCmFVwpWCUPNKnIn9PQePoxt7U80lCO9O9si4aWhAe64XSnDHtXlen+XIMZztr+JC2zwd4GNCVVjjAaqIzI+Hyc/H15Qh4ym29V6qMxLF75CwnXrNBln+btPElQfj/r64uSIFCST3aRFbqz+aw0j9Te9q5sQ4ByziUksWpLEiu/3cXroTt44bAk6Vw6xeKVMSxPvg5l+WzbWVbLE7NSOn7MLALtBQ7Lzrj8/DuivFmBTV83wn1s0Ora0e0pSQVNLtErY1gcU4COIpK2XDZLSOqENH69YUVxcj3PIgHd+WOErT6N1msAi3xlwdq2w2010SdKQZxFCn9wD1CS3MPV69BWNVUeaFrns4jJseOJ3k10vc5TSSdFKdrmLnTt4kJXxS00rVU80xEoLEdDcxylh+nKx7DXaJDmlOoVU1hkh4ub5CzP2gkXp3KKC+t3xlATdUIav5aqeKKHraHkStX54sCH80az4TnTJTftb+XEqkt5e88Z8PYhXP7ASY10/PjzIdbvq/vdSDNNvQ0NdCXlxKr1ryoDid/WEqsuJ3pLGml0ZVSVe7k1SzqUQvS2LFbLyoe5t0OnuYNLFxe6dnFA+1sFHj5KyZndLYrU5cQeTiFO3Y6AKvdjyyj+DUp/q/934mL6eWIz0lh1ogKfUb6yy+61237tJpRrxVmk8If2ACXJAn5ILcCh50gWDQZQMaqPqgnvSZos33yKIpv67eQsmeTrir06nZmfHmbip4eZ+OkBki61wsPPFkrUnCtqhc8QRzwArO34sI8SXf4F1ssnVEU561Ivo/R/inBnACtefL4XHjdz+aVJj9zLiNyTCzbGBFhO9KnLKP28ebG5vsSjjwdPtC3hzPFq7kmm6p+yrLrzrllSxkVWFshL664pt2H9GJ7ufMr0dGedlFwnMrnMvMy6I94dy0jbbvzuHGZiTD46146MN68J6FgZ35ADktqt33iYpDtdmTS5CS9hB71K2Lxg5CeogvCwucdJcirrkjPJzcnknb4O0GU8uTmZ5CavZhpw5M132VjQhclfZJKRvpOlPW3RyidhwaRJQSQum0DicCXYezFr2QQSlz1NqLwiQNEZYk83xSVLB/q725GXfl5y6U3Hj5mXcfR0YyRlzPn6IGrXZ/j2/bEkvj+cJ26fZOW6up1BJe1KYH12C4a+NYHEZeOZ4fkbcWvT6pBg67c+9D8nML1P2JlA9MV2zAgby4GI8Xw7rhVZGxMIq/bpRx3Lj+SDp5fppxmV8zO9NgyWNbOkrm2bbBvWX0JMNlnN3AgcbGP4jeUEEpcNx88eOg/XL/OeSbUf3ikHutJZk8/hTElhcj5Zt1T49ZeUGaiTs/i1qB39RtQ+7Xq5fZ2IHWfAqx+h3Q1ldd0OlvR6hueG9KervFwQHjL3rTOBGvkMIoB44tLkgYeX0t6WTrdr7wmlWtZWBDwGcdLeTAwdJFTpVOf8EX2HAE2huvkKQh08t2w3Yd0zCQ+azV55UBAeIg9mkhQE4SE2mv/smIfzoTeZsuS4PCgIDxWRJAVBaHoqJS4Fagrl5YLwkLnH9yQFQfifIBKk8AchkqQgCIIgWCCSpCAIgiBYIJKkIAiCIFggkqQgCIIgWCCSpCAIgiBYIJKkIAiCYFn30YwYIC9shKDnGWvs2ekhcN9+J9khOIRpVttZuOa0PGQy5XPi57Yhruc4Fspj/4vu0fpQ2tviXaUrnzvkq3VkNbdhaCv0/zZElPa2eCtuEVsE/spmtJC1BODOLU5dqqh55IzmNgxtVfW47bfrkp6Kmtsx46l2KHXX2XrsuqkjcllbnaacOE3lWwufCYqvlJN026ra5TafhhUjfZ3p0+b/yE26zGpjL0Q1ro/aeyryc7ZFUSL5fNZWBLRthu56OQlYXh/Fdra4WsvWqbRtLT07+Tnb4lg5acO2Nb6tZTs0ZF2i068PeVuzbUvNbf2cbbEvM98m/spmaK+YOqRX2rdikn8rFFcvszu1zOL3w8j8u2XDi71VuHGd3Seu17oOAXDtS2BvBQVb4kmXlnnB6V2JXDCvfV/UaV9riSqYqJUvY7P7n7z2ibwLNBWTQ6bCz++yVh6SmPzFXt5pE0/3se8C4P3SpyweBxtmvMYPjei/+V65b0ly0c+ZTCYatz/Pl4dMpq7mZGgbdruP4G15rMkFseT7V2l5aASvfiKPPSDu0foYP/Y5ZvW2A6tm2NiA7uYtQM22sONEDn6axOHtyNu1jYn79SNPTJoUxCzHVPp+XMG34U/ox8o0awtoMlm+LItosznJGKZd2cYgb89WXjgIyu4+fPmiB/bXitA0d8KxWSHbPzpMRFE1bRXN0GYnsPBrNQnGZezVDJ32jmTKZfz67V7mnG1vWO5HsGluA7pydBVQdOIXxm0uBetWrJj3LH7NS8krgvbtHdAk7WP6xuuoa1wftXUP6MCKsOG0PvQDE/cD2BD6xggCSeLtj8+TIP9MBnl7tvLvMl++n+hAwtI43i7Sl/uPCODDPqWsXpxcy7BZ+vn6KfSfE6tm2HCDhO/2MiejmnVpYNwONa/LjmxY1o/OhnVYKf9XBn59Udb2EWwUoE6MY+bm66ipqa1Gv8ycZnm4sf/ijmxY1pNrX+/g9UzwH9yfJUOc0BQWUWrXls4trlj+fhgYP5N//z4sGuWK4tplLtKazk6QtWWX+XBp1anub3Lqak6+AZ/4vshX5rXvizrta6vVh5B1H9FPvYwx87bKg8ACYrOCIdqTodV1Cm0w7btjvNMmFrdA0/wn/Hc/01ttY/KUqAf+97RVD63ukYV/9mzARrub2tChWxe6qOTl/3uiN+/VjyG477JkXMHjRFbWsKLzAA8mmbUCuMgLxvEH12ah4TIxxve1JUgj+TiGYfqdGNgxd4wX2sM7+NvSOEb8v21sv9SWwLGSYaWkbZclo3H35x/SjsILksymOzBsL3POIlnufSRpIG+fPj5us37I7xeDB+KnS2FOWCwTl8cycEUa9BnIop7GCVtaH/UzadKzjHS+Qsya86bhpyysD32n9O3wH2EcfcWRqX3aoT5e93EljZ9zYGg0y9Nt8R/jZRoH1cJ8K1lclwBlJK01b2s2HmVl282MW52HvX8f5nasY1t7D0YOrmb0l5ZuzB3uRNaPWxmx/DAT39/M+nNtGTnewvfD7DM5MnWIG7rD2xi49CATl25lTlwJHkG+zK3n8GEPogbva4OC6eeaR/x/q0uQAO8y1KPmBGnJD8t2cc5tGG8GySMPnnucJIP5Ji6FjFTDa/MCWXwQ73y3l4ycTHKzUogfV5+MpWJy5E5OZulHGck9vpOoYGP7YL6J28s3Sz4nPtUY32QYkgsWbU4hI3U2/RzAfaRx+TaxqHLahvZhkcQeN7Q/9DGBhmhAyGrTdFP3si5kkHk7C/MFFdM+liyzWVtqXR8dRi5gu3F5so4R/8VUOkjik7/YS/zXC4j6+Zi+Ts4hPhsqqdBgZWjwYnw9x1RslC5u+LRWk/RzueHyoo6Iw/ngVt2wUkBRLklqK5SujR0xw5H+XWzJO3HGlLjO57FuWxpJ14wFjV8f/oOfZkZvSPruMBHVjrYip2P5L2fAsytzrUHZvys+nCE2ppYzHwvWJ+ejae1IZd6/R9QZuWRrWuHiLo9UT6cpp/PAqsOUKf3ao9SYDyO3/Ohp8m7Z4i+tWC1bWtiBVmtadwkxx1kfdwG1nVnFBgkI+56jxr//rGPERgZX/p1O/mKv+X5wyufES/Y9HaZ/bNrnZKUQ/10IAabaNfyN17av9eL1r/eSYdj3ZJjtl/QmDOtJ69wkPpJfEp3yOfHG6aamsN20o9QbHMK6uJTKfdpoF1kcoGAZJ3Id8R4WLI88cO5xkozny6WhhISFsjZbi+JRhVm030cLmNYb4sLH4Tb0H2wrcajzeJIdQpfzzkgFRyLG4eY+joWpLRkVEsnrANigcFDRr4+Or4I9cRs7n5gyLya/GQLAwrG96N4ziiOlkLO9F9179qK72X0/ffuACY9T8MO7zJ47l4VR0cQAjP+cpdO9KP1hLoPcn2P25lJ8py8gakDt8yVkOW8NVRA39znc3J9jdiz0e+mfvGOYa43rw3U2H0UE0yEripHungyaewBt/xC+XtLXWAPFow50GDSe3oXrWTh3LrPDo/ghtjLcCCUkHVKjfMq73gP1NpjrY9hrbpAnPUtKvUGRdSs8ukjKjJzc8FNWoM7Xnw0CYK1gqNK28hVQzX21quxo0byMa2Y3U3WsP5grGQ+zkeujtQehw9tRtHcfr2fIg81wkizzUCfTwNfq5FMkFKl4ZmQ75g50rddZpNwkX1fsrxWTWllieb51YdNS0lZpox9PtRrK7m50s79OYY6prKa22pxUku50ZdQI8wOSAOeWcL3EfBi51Cwmfp0ruYJh6TNdZPuJUpSDg9gwqh0j7YHbZSyPucj6Oh2w1GBAJIumuHHhi3G4uXsy8uNc2o55lUWGIzvFow7m+0ErBS0fVaAvCeHT2UNQxM9lkLsng+bugT5TeUty5mb5b7zmfW3Ax8t5q6+WmLnP4eY+jk+yVEyO1A9ZqBeIXyd7Ci8cNmsHQPwq3gsLJSRsPem3FSjMJt2XqNCp+FYcYOFYTwa9soNSh+r34lmXi2mh7PXAjzl6j5NkAUd27WDblh1cqTIUoIoJPVWUnljHq2tOQ34iH+w7jWQXVwMVrw/0Qnvc0JbTrH15O+kKN/ynm2pdOP6G/gZzWjRr0grAuTuTpZOpxYVdL/JS5Dq2bdnB2uh4AKaN6U2bs7G8FrGDCxSwbeE3HLmqovcY01mfxfkuHUd3j+eYfa4Lo8Y8DsczuGClosdUal8ffx+ILydZ+/eVpAMXts/lq8Qi3PsG069yzkD+Hv7+chRrt+xg25po4qSxRtDsTyZB25WhgQ0/e6qWfBzDNyqvw1V1+zZarKCZ4b29BzPCR3MgfCyJIb4oMg/yufRv3Nmb+TMCK1+znqv+j7cmL47pz4bX9K8lktOuxqyPzk/54HjHCielfdVBj+3dGC9Z5vmjnSVBHcuPFGDf92n8FfU/i+z87GgOhI/mQMR4ZvUoIe7702w3BmucL9Cxn9lYk+bjZ9rhM0rSdkYv02VcAJWffr7hY9n0Umc0cYeJrLx9W0tbbhCxLx9lnwYckNTwmdav30XYplzo4U9o2HgOvOXDLCez1vXj0AbpybGitRc9gPRP5vLqG0tYU/mUVE2WMrKHJ4Pm5tJlTBC9rRI5XQgduk81r1bt33hN+9ogpjyh4sL+d5m9vQA4zYrQ7aTb9WbYbGMdJ2xsQPt7NaO45CcSs2UH27ZcqTrer+t4eruWkvy9fp93ITGKX7Kq34vvvVEKLVo88GOO3uMkWZMhtGkFVwpWyQN1MIQObcChb4jhkkMmuTlT6WHlQJvqzjKAI2VasMJwxFY32tvy6w7g3kY/eHR85XwjCWgDLZ2HyKuCfL6uU/WXRL5fRuirrzLzhd60raxZy/qwV8DtcqQHuhuvloCDPT0kZdwuv0tP2JURGZ+Pk78vT8hDjaE5zfJ5P9DX+DI+/HLnDiA7m2mpQMFvaIx3/jW5RK+MYXFMATqKSNpy2XSJlKr30Yz3HOvkT/r/FZ8v5MzZQn5rqcLVbCfa8PWhO3+MsNWn0XoNYJH8sFp+H016fw5QJ6Tx6w0ripPrfxapPhrD4pW/kHDNCl32ad7OkwRrmS/nj5i20bwfGLJeui7l9xWl97OBS6dYvDKG5cnXoSyfbTvLJE8919IWUB9OI+GmGyNHyp6D/ZN11YMMqVo+U+zR00x8fzPjwveRcMedSa/5NPo+M4fmsvDLEyhGLmB7TiYZxz9nui+creFpUBMV077YS0b6BqLmvsrMV6bi21pepyF/421QKEBblmgqyi+gtEyBg+xYqN4GO9GSq1z4Uh54eD1ASXIPV69DW5XsKKlOMigthavx83Fz9zR7Db2bj4ECVzVayFjHINl8H/+7heQmMSr0ZQKsD/Bqjyd5KnAEQ/8cJ/my17I+KgBrW1pKivrZKUCr5Yqk7G5SJ6Txa6mKJ3rYykNNL7uIYvvH6Cn5wEpvR5Q3SzlXeaRwiyJ1ObGHU4hTtyNgjPGhlsa4QmGRHZ166G9ObU/OJSwml3O/yes1fH1cTD9PbEYaq05U4DPKt55nSGUU/walv9XvLBJA+1s5sepS3t5zBrx9CJd+me6m21pi1eVEb0kjja6Mqve93DIiDxZg/4QH7Q0l688VgdNjjJJWe7oPB/7tU+X+ZRVd3PjyNY/K9a7WXOftb06htnelv6e8sswZDSW0pO0YSZlHGxxKr5KDfgB5h9RVvNynF27PvsjC7Rp8p0bw0UxJfUvGLGD6YFvi3ujF4wNGMPTPI/ilSR4F1UEFKOxMt2agJQpr0Ep+NtUg+4sooQ0dJFfwHnYPUJIs4IfUAhx6jjTcQFYxqo+qjvckE1lzooA2facSNdJwmdNnBt9s/pxprvK6lugTbQf32WYPv9Tmg7gMtN1HsmSml77ANYio77+vchO8Oi1tbOBRe9xdAbyY/GlfySWaWtbHFwdIt+pOYGSQfnl9ZvBWfxVX0/awrXIad1sZkXtywaZ+96saRJ1Hkrod/lPcGGoNNHck9BlXNJk5rJTXRcfK+Kba8Zez7mgB9r19CTceZTd3pFMrWTVo9PpYv/EwSXe6MmmyY81nRE0tVf+kbNMcVNRHMauOX0b5VNUHcWqjTkgm4ZoNlen12BnS7rgxdLitft1Z27LkSTdQq1lt1rIa+eXYtH+cvzzvWHn/c6i/M8rbReRJ7pVW61A8Z6864fu3GforOK7BfDOgC9rsRP3PP0b9k6ioxbw1UgX5iWzcfIILvytQGL6X6VdLwcWdt1zRP3w4wN30N+6gQIENDoZH7ntM+Zh+nYzBxljH1hNFdOg7g9d90O9bIoPwtTrNke9MdQqvglPb581a1io/mhP5DviOWqB/wMg1CD9V9XvxCS5OcFXND/LAk8G8ufBVRsjL75N7nCSnsi5Zf1nynb76y5S5OZnkJutvGB958102FnRh8heZZKTvZGlP26rXvC048ua7fHVCQeBHe8lITSE3+lW6XDvBkXx5TUsSeW9dIqU+M4hPTyE35xjrZsjrVOOTuby35So93thEbnoKGbGRBCjSSap8HN6ytV+t54i2L+/syyQ3axNvuZRyFdMfUI3rI38pr0UlohgeSXx6ChnRs3HPX0fIK3X6oUWNJk0K0t9rGq6U3CN8muqe9Nb/FEFeejfoCFsbR1YLX8Lfn0Bi+DP4lCTz+cbqL5mqk7P4tagd/UZI/kBl99ESlwWxwhPD7+0mkLhsOH720Hm4+X22pLjDrPxVQcBbE0iMGEti+DN0uniIVQdMkzZq1Pq4fZ2IHWfAqx+hxh5J5Pdol01gQx0OwOpHx/Ij+eDpRajxoKJR87XD72XztpbuLSfEZJPVzI3Ayp911LWt/uneyvPn28Us/CEN+gWxKWI0ByKC8Ncls3xdsamJpc90W82/vzpOkdszfLt0LAfen0B4PyuSNiUTWesl7GheCl3HhW6z2Z6VQu6+BfS7Hc8HIYZDt4j/8tVxJPulqXQ4u44PIvThI1HrOFL2OK/HppCRtZeZdle4apz0mpWsTdTRL2QvuVmZbJ/dntKroLCty5Ffzfvaja+EsrbAi7eiU8hI30vUcIiLmsV7kv3lnhw1LTo8UfXBmqmrOZmTSW5OiP4XAeP18zn53VQgkdkR0VxwC+abrBQyfo7AV1HdXrwPPkp7CnNi5AFw68+QYc/gLS+/T+5bZwI18hlEAPHESa/bT13NydC+Vc8sz0ab/UgVvAgY04ar0h4w6qWh7VX0G94dTu+pR2LW69B3CF3K9ph/Xqnq1odEj8FDcDhb//k+rJT2tnS6XXuvMk3PCn+lFcXS3mmEB46Hky0tbph64amX5jYEWOvMemuqq5r/jmver3ToOwhVYXz1f8OufQnsUkrM/gb0mFObmqatms1X64Zxbdkw/rVDHqxdj8GDYH/1n5egKLbMc2RP8GRWyB/1+OdaDvwVfhgwmRWy0P3wYCZJQRAE4b7rG7qRsMezCf/rfCSP+TRSf8J+fBf3kwuYEiH/iYkPb677jCFFn/Hnf66Txe4PkSQFQRAEC5RMWPYZQ36bz7RF1Z4i15v3wrUsaLGb2fPWVd8lnUqJS4G6+th9IJKkIAiCIFhwjx/cEQRBEISHh0iSgiAIgmCBSJKCIAiCYIFIkoIgCIJggUiSgiAIgmCBSJKCIAgPPSXPBQVS3dCNDdOHsX9tyuk9vO7bT0A6BIcwzWo7C9dU09OD0ZTPiZ/bhjizsR0bZtHmFJ43jghyLZH3Av7BWlkdUDE5ZCr8/K5+aKsHmhX+ymbIxkFApyknTgN+zrbYl+n/raevr71Szm+P2eJqoU/p4iu191Ti52yLo/zw6s4tTl2qqBzNwc9TyWjXP6FOv8TKgorKauZt75Av7b2muQ1DW8knDL9d1/euU+18dbeILZJM3zjfjEtsOy9ZnhrWR22fV2lvi7dCNh9nWxxv3yK2iGq3A7pbxJZZMbTVI1XWqamtaXrVkq0P47Y1qnZ9GLdDQ9alhbby+SrtbfGuZizO4ivlJDWzYWgrzLZr1fVnxUhfZ/q0+T9yky6zWlJucV1K63i3Y1h7ZG1r1mNwEKrfTxKTaOrepcfgINpc3WGhh5x7bRCvh/XmwrdRbKuu151a9A3dSJjfOb4c9y82y2IN29cGEvZjiIUf/P9vuW9JctHPmUwmGrc/S7uUk5m6mpOhbdjtPoLGDubRY3AQXRyAZ2cT1b+A93xf1HdAbGYBsVnBEO3J0Oo6Km2omR8TO6CET/42vwk7H2/Pt+FP0JlHsGluA7pydBVQdOIXxm2GFWHD8eM0y8PTDAPRdmTDsp5c+3oHef1HM8oVkLWFMn79di9zaux31kE/bYWxjYEmk+XLsojGhtDXRjCyQznqInBqa4cmaR/TN15HLW9r1QwbbpDw3V7mZACDnyZxeDt0N29JJgx5e7bywkEHPpz3DE/YAwpbbO7o0N26A/m/GoY8ksz3wk3sOzihuHCMtz89T4JxvhbWx+uZZrOrYtKkIGY5plYO2+U/+GmWPAsxHx0koqgjG5b1o3PlOjTI/5WB35bz5fzncDy+mXE7Db2MOnVlU4gXxRu2Mj1ZUr868vWhaIY2O4GFX6tNn8nSdpC3NTCuy3q1NZuvYX30aoZOe0fS2PDdcdW3zdu1jYn79Z/ZbP1Zt2LFvGfxsyoi7xo4uTqhq/x+1LAuv74ITkq+fc0fD+tS8oqgfftWaHMOsvBL/XLVZElMJsOuLjUbnWdJTCa+J+7+SEF1MuVzjob1Jif8SYLXyIO1+Nun/PyqPTur6+KtMfvaJ+ezZtkALjWwW7o/ivuWJOukug3XWEt2kjv0qoUkeZfc1Xnqd3itD/3AxP3mZX72FZKdVXVJobq2tam5jbJ/XzYNqWD90uMsvwnK7j58+6ILaStimXO+attJk4KY5ZpLxPun2T74aRIH3JAksuqFvjGBgOJdZmMY+g0PYMVTpaxenKwfV9FaybeLnsb+0GbG7bKt4/qonnQnr+zuw7cvuVO0cycT42qfjv+IAD7sU8rK/5fMauDFF0Yzw+k0cz44U+uOHfn6cHJj01u+aHZE88LhquvSjLytmXq2NZtv1YOGKm2HK/XjghraS+tX+fwdPdj5hitZH8cy53zN6/LFF0Yzo+1p5iwztHXqyqaQXmi26JerJg98kmwwJW+u2cqgosWMmbNVHqw7C/vaER/uJsRpHxOmLHtgesC51+QXXO6yYP0gw6mG1+YFsvgg3vluLxk5meRmpRA/zjDsVZ2omBy5k5NZhsGPj+8kKriO7ad8TrxxmVJT2L5IFncNJurnY5UDOp/8OZLJxiG4Fm0iY3MkizYb4lkpxH8xVT98lXG6I7uAQ1/eMkw//ovgykkHhKwmPtWwzKl7WRcyqDLWWDpNOZ0H1n8YosaY2ssVTXYWyw2dj6szski60goPv+rHWFyfnI+mtSM95YF6seGvXu3QZOeYBh6+rSb6p+MknDPVavT6cOrIB3/3ghNxvBVXt/EbE2LSSMONZ/rrE/cznpD2Sx0SZHWKcklSW6F0rdLN/91V7/mWocGL8VXGiXSgj6steSckn/98PgmpZeBS+/Bi7e1sQVtB5SYtOsP66GTSrsnn0wCuU/ksxvQ3nhG3mneMo54s2kRG3OdMrqy8gO2pe/lmiuHt4AVEH0qpfv+AaR/xznd7ycjKJDcnhe0hkljlvkcyTYMOIxew/bhh/5B1zLRvMVK9RO+uxWTHyhNk0+xrd8Zmcq1rH6ZUH/6fcI+TZDxfLg0lJCyUtdlaFI8qzKL9PlrAtN4QFz4Ot6H/YFuJQ9VRPyzoELqcd0YqOBIxDjf3cSw8rmDUO8t5py7jScav4r2wUELC1pN+W4HCbLFUvPPJvxj16FEWjvXEbey7JDsE8c5SwzhaCgUKr770+DWcQe7PEbzmLG0Hv8yiMcCafzCoZy+6bz8LpYl80LMX3Xv2YtArho57x3/O0ulelP4wl0HuzzF7cym+0xcQNUA6/4bT5qSSdKcro0Y0wU6kThxQOkHRJenwVTpSC8twdKl+rMJJvq7YXysmtbKkGU5KW4YaX0617zzBFns7+Xz1AyRHZpiSWePWRws+fLkfnS8fZ+H665X3Oo1sWkqWWWlTOS4ht4tZdbwIjwEezBrjjUfRaVbVdpnVEic3/JQVqPNNn1PRQjpfW/zqMWBzndtWM1+sFWZtA8zuUZaQdEiN8ilv2QDSj9HavoxrZiuvnIi1h5lz1HR91dK6XPXLaTQdfPl2RldmdLRCCUQfNd/GDfX60tkEWh9g9rOeuD07l5iKvkx7c4E+ISkUKBwUmHYLChSPOqCwAgjis/Bg3As+Y6S7J25jo8hxDmJmaJBp4goFCp8gnrdL5JOQucye+y5fGs98o/9LSFgoIWEHuFI5TQPX2XwUEUyHrChGunsyaO4BtP1D+HqJZLDkv3jQ6aaa7N2SdtB0+9rd5yiqUOI6XB7433GPk2QBR3btYNuWHVwpl8dUTOipovTEOl5dcxryE/lg32mqHy2wqtf7e0HaDn1bTrP2tZWs2HWCK3UZQTk/kZgtO9i25UrV8StdZxDQXcuRb9/QP8yTto6Xdp1G0a0v04x1ynLYHbGDCxRwJOIA6b87oepjPpnqTBvTmzZnY3nN0Hbbwm84clVF7zFNddh2g4h9+Sj7yHdWjWccc1H/Mo7LWAMr019/52dHcyB8NAcixjOrRwlx359muzFo78b4GYHMN75GG0c6rruhAY+z4bX+bHitP18GSM9gG7E+Ovrg37oCWj9Gzypt7fAZJVnmGb0YKYkmxGST5eDDpD7N638Wae/BjPDRHAgfS2KIL4rMg3wuubSofEo63wEESw8K5eMnysZlrLltzfPF2VvSNpBZz5nvYjX7k0nQdmVoYH0PSCyvS3VGGi98kEBaM3cmvT6eTeEBrOhT3+mba6uaanpjpaCtiwrydzB79j+Y/ekeaVULdvDqAE8e/9sOHIYHMapLAem5Wtq4ShIZQGkin4ydz4otO9i2JZpthwzlafFs27KDbVtKqu57/j4QX06y9u8rSQcubJ/LV4lFuPcNpp+xTgsF3C6n6sheTbWvvcpvvyto0VZe/r/jHifJmgyhTSu4UmC6Z1B3wXRoA9ryEklZNB/MfZevjF/Ghhqsoi0O9As1XPLIySR3qhc4tMFdXheAErS3gTqcALm30Q+GGm+cbk4kAW2gpfMQedUGUx9OI+GmGyNHVnlmsFHydv1A33nGl+Qe0h1QNDOv66CwQvdbWeV79dEYFq/8hYRrVuiyT/N2nqSyJouVYVsZaHx9fVESrJlxvsWXr3LmbCGF1k50UprvRBu8PnRqtn+0j6TbXZk02RGlWbCMpLWSZQ47TqQ0fFtN9IlSaMhZpCaX6JUxLI4pQEcRSVsumyXZvH3S+coeutKcZnnlNvqhyj3EmtvWPF8KkiRttzJus3wXW0ZkfD5O/r48IYvwJ3mBVM3rUn1JzZyPdzEwNJrlv4LP80NrP0CrgxUh/2Hb9d7M/HYvuenHOBo+kpYFiVyQV6xGQNgmTqbv5Jvw2cx85VUCXM3P2hrMXp8ApXu1jVdLwMGeHpKy+mvMvvZ/zwOUJPdw9brsyK7O1nHhmrzMi4AxQ+hXl8utNTmjoYQi4t72xM1d+mr8w0RXNVrIWMcgs+l6mj1c0HhlRB4swP4JD9rLQ02ulKzLFTgppZdW7ejmbEvRFdOxrva3cmLVpby95wx4+xBel4HWa1RKVmEFys5KlEBSxkXCYnL5tdqfBzRwfVzKJ+LSdSJ+ykLrNYBFVYZrr9n2azehXFu/s0gAblGkLif2cApx6nYEjKn+snXTa/x81Qlp/Fqq4okexrP5KxQW2eHiJj1wceDDeaPZ8FxtR5UOhE/tz4fG9X67gvXbEki4ZEc332ovFJq5qtHi0FJ6OjSVDm2g5NIe/YDpXiVsCRvA4x6ejHzjG5IdhrAoKtJ0xmZRCG8Fd+HCmhF07/McQ/88grVZ8gOGBqoArG2R/nn0s1OAVssVSVn9NWZf+7/nAUqSBfyQWoBDz5EsGgygYlQfVfXXyaux9XQBDr3Hs8Rws73HzDCiIkOYUJfLrTU5tI4T+U70mx5p+NkE9Jj5OdvlN9BrckmD1kGFn/FBAIMP4jLQdh/Jkple+gLXIKK+/97w+ZuOOiGZhGs2NO7CVN0sP5oLXk+yoqd+pzc00JcnHNQkHarmvlHqKRIuNWwHLLf8YBaazr0INcwXa1s8nap/WKgx60OdcZJVJyrwGeVb/0u2jaJjZXxTHVTUR2PmW0bknlywMSbAcqJPXUbp582LzfUlHn08eKJtCWeOV3dAI1VKkXVb/P/8eGVbpbOKbk6ye6UWbDxxFm23IUSN1N/KCAgbia9DASe2FACPMz0skqjQGfQA0vfvYFeWBh61pw1Agfnfb0CYl+Rv3x6FlQKHNvofYXcYGcJor7rutWrxxQHSrboTGBmkn5/PDN7qr+Jq2h7TT8myi/jN3olOZg1rU599bWda22u4li0vhxGvLubN4DrcV3rI3eMkOZV1yfpLi+/01V9qzM3JJDd5NdOAI2++y8aCLkz+IpOM9J0s7Wlb9Tq9BUfefJev0lry/GeZZKRnsv0NFTlfvstsw+XWJTGGS5rj9U+avpOTSW7OTpZgePw5J5PcnBD6OYD7eMNTat9NBRKZHbGKZMUQomJT9NN+tQtXU4/W6VIMAFGfsTW7DYFfZOqfbtsXiS/AJ3N5b8tVeryxidz0FDJiIwlQpJNU4+8UjTqyYdkEEpcNx8/edI9wz6Tqvuo6lv9yhmrSVNNLTWZ53G/4TB5P4rIJhAc0J2vTUSKk14wq6Vh+JB88vQg17oDl99GWTWDDYAw/W9C/H9kR7HsPN7/PlpnGwm1FdAseT2LEWBLfDyKg2WnWVbkMSKPXx/qNR0ijK395vpXhsqsdfi+bL7P8/l9TUCdn8WtRO/qNMG1j83vDE0gM82GSWSvL6tq2uvnSsZ95Wwv3pdXJp0i4ZHqfsDOB6IvtmBE2lgMR4/l2XCuyNiYQVvn9sLwul6+KJbbIhRnh4zkQMZ5Nb/pAmuxeqQUXImbxQTwEfrSXjPRMvglWkbPGuH/YwcJPdnCl22y2Z6WQkb6XqAHlxH3zrj4ZfSL5+03P5LO+Oi78bpzyfL7aXkDbMZ+Tm5VJ/JIhcL0UFC3rcBZq+HlYTia5OeNxl9zWiV0C5C/ltahEFMMjiU9PISN6Nu756wh5JdrU/sdfOXdTiet06URpun3tdDeUN8+R9KM8AN4DAxnSr5u8+A/nwfydpM8gAog37wlj6mpOhvaterRzNhq3QMmPZF37EugFp3fV7X5CvfgMYlSbq2zbX0PPFTXo0HcIXmSY9fqhp6Lf8O5weg9HGtDbxoPJCn9nOCfphede8XO2haLae9IR7iNrKwIeg7hqL4nXpjHfLS8Chjtw1sL+wfLfqIX9UqWap9tYPQYPweFs9fuHEct282a7fUxuyG8Za/xMSt5cs5FBl5cxZp78JyaB/GfHYrplzGfMvBhZ7I/lwUySgiAIQt2ogon66mVY+3dmr6v/YYMlLsGf8vVk+Hbaa/wgP2YYHcWWOUqOzHuepcdksT8YkSQFQRAedgPm8dWczsSPe62aPqkb4iWiNj1D/oeT+cjCLwRcVEoKC5ouKT+oRJIUBEEQBAvu8YM7giAIgvDwEElSEARBECwQSVIQBEEQLBBJUhAEQRAsEElSEARBECwQSVIQBEEQLLhPPwFRMTnyc94a2QUHK6DiNGs9xrFQXq0eJn+xl3faxNN97LvyUNMZPINFPQv4KmpH/XvVaExbBvF6WG8ufBvFtmp63Kg3aysC2jar7Lu0+IqF3mmsrQhwgmxJzyYeTra4Wuj0tPhKOUnNbBjaquqx12/Xy0kwDMQsCILwsLg/SXLM5xyN7M2FqBcZ/8lpOvh4QdrpBiQPk2nfHeOdNrHmXdQ1sclfH2JRzxwW9nmx3j/YbUxbpnzO0bDe5IQ/SfAaebABPH3Y87IHipu3gEewUdxBffwQ/44uJktSzW9EACsCIG5xHG8b+tac+/JoQ0fvj2DT3AZ05egqAMr49du9zHF9msTh7dDdvCWZEuTt2coLB82KBEEQHnj3J0ku2Unu0Ku85/siX8ljDXQvkuQfhqcPe15+jLh5B4kAlM5ufPBGHxQJmxm309jttw1L3hpLgDOo929m3C55d+AOrAgbTutDPzBxv6R48NMkDrjB8vA01kuKBUEQHkZVr4vdTVM+Jz41hYyR+pE43kpNISM1hfgvgg0VVEyO3MnJLMOIHcd3EhWsH9oGgMEhrItL0ceyUoj/LoQAUxSsVXxTGT/G9rBBkrYLiD5kiOVkcvLnSCbXcazJRZv1y5mRmkJG3OdMNgtuImNzJIs2HzMtl2QYrRrbAgEhq4lPNXze1L2sC5Es86JNprape/lmirQldBi5gO3HDW2zjpnNtz7Ul3KJTLiM0s/DNApES1e6OV8m4ehllJ4q/MybCIIg/E+4t0lyzT8Y1LMX3befhdJEPujZi+49ezHolXUAdAhdzjsjFRyJGIeb+zgWprZkVEgkrwMwnm8iptLj+npmP+vJoLnrKfWaytIvxpum76xC+81E3NzH8fa+UnoE/5N3AAjis/Bg3As+Y6S7J25jo8hxDmJmaJCpbQ02fhxKSFgoIfFXUTgoMBt3XKFA4dWXHr+GM8j9OYLXnKXt4JdZNKYObcd/ztLpXpT+MJdB7s8x+4dSekyP4BvjR4r+r75t2AGuPOqAQjouretsPooIpkNWFCPdPRk09wDa/iF8vaSvpFLdJZ0tRmP/GJ0N7/3826O8dJF1CYUUK9szrF5jJzbDSWnLUOPLqbYBdQVBEB5M9zZJ1kjF6wO90B5fx6trTgOnWfvydtIVbvhPB6YE4dumgCMfLGVbPlzYvpT3PlvHEelgoAWJlW03Lj3JBSsVPaYA7ODVAZ48/rcdOAwPYlSXAtJztbRxrVtCSd+/g21bdrCtrNoR16Ash90RO7hAAUciDpD+uxMqw1ikNbWdHNSbNgVHec/QdlvEf/hkXSLpxgpp8fq2W0qqjvX294H4cpK1f19JOnBh+1y+SizCvW9w3caxq5ENoz3boc7MJ0mdT1aREu+B8jo1sHdj/IxA5htfo53lNQRBEB4KD1CSHEKHNuDQN6TykmhuzlR6WDnQpgvg0QYHtJRIeqQ/8uW7zI6UDEAqlV+uTyyGk5iAsE2cTN/JN+GzmfnKqwS4mp3TNaEStLdN861Jj7YOoC3hSGVJIl8tnMsHFj6SGXsF3C5HOpbxxqsl4GBPD0lZnf1JssAtVXgry9HaqQgPVKLQ6ejcTWkYYLgONFmsDNvKQOPr64vyGoIgCA+FByhJZlBaClfj5+Pm7mn2Gvo2kHOVUhTYSu4jdug7hFGDvaQTsSCEt4K7cGHNCLr3eY6hfx7B2qzqRqy/t3KulYK1reQ+oop+w4MI8DGrVr0KwNqWlpKifnYK0Gq5Iimrq0m9VdirL7IbUPq1R3mzDJxc6NrFhdYV5ehcOzKpXpdcBUEQHn4PUJJMZM2JAtr0nUrUSMPDOj4z+Gbz50xzBVYlkvO7ioAIw8MprkG8FfExS1+py3VAexRWChzadAGgw8gQRns5yCvdc18l5qJ1HciS6frP22HkbJZERTBT8uyORV8cIN2qO4GRQfr14TODt/qruJq2h23yujWyYuTgvkztVUHS7lySgKk9lGgyjzHx08P61/JjZN1S4fOkvG0DPRnMmwtfZYS8XBAE4QHzACVJOPLmu3x1QkHgR3vJSE0hN/pVulw7wZF8gJW8uXQPV3qGEJ+eQkZsJIG39/BeyEr5ZKoxn6+2F9B2zOfkZmUSv2QIXC8FRcs63b9bEmO4/Dte/1TuOzmZ5ObsZIm8YjVqbPvJXN7bdRXfufrPGx85BG3sf3jzE2PjnYbLzuNxx4F+ofppxS4B8pfyWlQiiuGR+vURPRv3/HWEvFKXa7UASkYum0DisrHMe8qKI1/H8noGYN0R745lZCdLz7SLScq7hUfPOl5ytfdi1rIJJEpeGwZL4m79GTLsGbwlRYIgCA+i+/M7yVp5ETCmDVe3xJseYpHoMTiINld3EJcmj9TGi4DhDpzdlWjWccG0747xTt+qZ5Y50YZLvXddzZ+3Nj0GD8Hh7B7DwcRD4J9rOfBX+GHAZFbIY4IgCA+QBzRJCn9cPry57jOGFH3Gn/+p/+mPIAjCg0okSeHeUylxKVBTKC8XBEF4wDxQ9ySF/xEiQQqC8JAQSVIQBEEQLBBJUhAEQRAsEElSEARBECwQSVIQBEEQLBBJUhAEQRAsEElSEARBECwQSVK4q7oFjaZuA5I1gaDnGdtdXigIgtBwD1SSnPzFXjI2L5AXV2MQr4fNZpRkRJCmoWJyyAIm12UUjkazwl9pi59sZA2lvS1Dna3M+0i1tiJAXmZoXzmwcZW4vs5I3/aEByp5UTrwcXObqvWb21QdHLnB89VzCf6U/8wajZ+FsbuUjtW1taLfUGf+33Qlr/StGleq7HjlhU78v+cfo5+jecy7bQAvLPuUCYb+8QVBEBrrgepxZ9p3x3inTSxugfPlIXNjPuZo5EAurOzF+Eh5sAYzPyZ2QAmf/G2+hZEyFhCbFQzRngwNlceamh0f/jsIj8ytjNhcXlka+sYEAn/by8BVxZVlfiMCWBEAcYvjeLtyAMmObFjWj866cnQVgFUzbLT5RH96nMgiwLoVK+Y9i59VEXnXwMnVCV3SPqZvvI568NMkDrjB8vA01hsnN/hpEnvk0/fj842br9GT81mzbACXlg3jXzsk5XZWTBzvSVBAVzpZneGTKelsqAza8O+PAglyvMG5K3ewV7VBkRbH1IgbqAHlsz1Y9bob2oIiNI+0pFNbDTvmH+Z9ycDbE/67n+mttjF5SpTosEAQhEZ7oM4k62zLGzzlXs8ECaByw72birby8krvMtTjXiRIgDJ+zS/D0a0DfpVlSropK8jLMiVIsOGvnu2AdnTzt5GUA5SRtNYwsHHoNmJvuDJ+vH6kjheDB+KnS2HO4jgmfhrHkBVp0KcPczvKJmFRw+ZrNOJvA+iUv4+PpAkS+Pfikbzib0thgcY8ACgnPU5Q2wt8++pBguceZlRYGqV9/JjzOIAdcyZ5Uro3hlGzjhA8czffZrUiaJqz2TR+WLaLc27DeDPIrFgQBKFB7nmS7DByAduPG4aPyjpG/BeG8SGN7LxM8dSdfBYsuXa2aBMZqSmG116+mSJtqGJy5E5OZhnaHt9JlLHtlM+JT00hY6R+uKq3DNOI/yLYPG54bV8kmezUzzma/D3vSC/tzlzN0ePfs+hxABWjFm0yzTd5L98YxoeszfrkfDTOzgwzXnL174gHBSQlSCq1dKWb82USjl5G6amSJFQ5HWGnLkNbRwJwoI+rLXknzlA5qfP5JKSWgYvskqolDZqvUTBDvB3JTlpW5Wzu2/lbeOYfSczNM509Gw3q3BquFPNFmbHkJrryx3DxBWiNi2MZhad1lfWLNDfB2ZGJlSVAwTJO5DriPcywbQVBEBrh3iZJ19l8FBFMh6woRrp7MmjuAbT9Q/h6ieTRjlYKzi4dh9uzL7IitQ2BIZG8boxF/5eQsFBCwg5w5VEHFJL9fYfQ5bwzUsGRiHG4uY9jYWpLRhnbrvkHg3r2ovv2s1CayAc9e9G9Zy8GvWIYhSJ+Fe+FhRIStp702woUCtN0WbWHdO3jBM42LeNbAb1xyE9k4UnoMDuSpcEq0j8eh5v7c8zer6Xf3M9ZMkAyDUsy1Zwra0e3p/RvZ3i0g/zzSEeE9PNvj/LSRdYlFFKsbG9KqFXYEO7dDq4UE8djtLYv45paGi8nYu1h5hytMLxvhpP03mIL8+TZsPkaDOtDJ3s1l46Y1wRQVybAmnUb7sm2cD+U1X1D7RTM+U8QbzzxqDwCQNblYlooe+ErDwiCINRTdbugu+fvA/HlJGv/vpJ04ML2uXyVWIR732DT4McFJ5gdfRryE/kg9AAXHnXDf6ohlhbPti072LalBK1pqoCK1wd6oT2+jlfXnAZOs/bl7aQr3PCfblaxevmJxGzZwbYtV2TTBYjmy8QCOvQcr19G1wUE+EB6XBQAk599HE6uJ/iT00AB2+au4si1LvSbUJdnOotJyr+Fh5cScMCnQzOy0tSYcpsNoz3boc7MJ0mdT1aREu+B0vZ2+E0ezYHw0Rx4fyxD7XJZHy1tXwN7N8bPCGS+8fWUkyTYyPk+ZoMNWjTHpG3qyooX/vUMn7/gyKmog6TJTzgdlaz6YjgBvx/jnd3XZEG9vTdKoUULusoDgiAI9XRvk6S9Am6XU/kMCLDxagk42FPtA5D55WhxoE0neUBuCB3agEPfEP0lz5xMcnOm0sPKgTZd5HXr70hUPOmqvkwfDx1e6E2Pa4ls/EQfc7ABbbn0E0VzpRRatqrbbxFWplxA18GZGZ6udLO/TPZRSbClCm9lOVo7FeGBShQ6HZ27Se/9lZG2LYbFK4+TpwX1yVMslz488yfJv+U0WawMM9xXDNvKwH2XTbHGzrcxOj/Oi6rzfPz6Yd5JvCML2uEX3APdpl3M+H9XqOZEVRAEoUnd2yRZAVjb0lJS1M9OAVotVyRllVxtUVDK1XPygFwGpaVwNX4+bu6eZq+hb8vrNkD+u+w+YU+P4VN5a5AXFxJXsdEYqwCFrfQT9aWlArS/X5WU1SA5nyyU9HvaBfvz+ay6bQop/dqjvFkGTi507eJC64pydK4dmSS59KkrKSdWrWb50cson/LmRQCuUFhkh4ub9IEbBz6cN5oNz9V+T7Lh820cbUUFFJzkH7POskn67FKF8T9lnPpyD//4SWs6a62gmrN/QRCEpnFvk+QXB0i36k5gZJD+YR2fGbzVX8XVtD2mn2S4eLFoMICKaRED6aAtIH2VdCLVSWTNiQLa9J1K1EjDQzM+M/hm8+dMkz5wc0mD1kGF32BJWR2tiE6EPq8S4HyauKhEU/nh09B9SOV8e8ycTT9VEemxssc6LSom7YItHt1aoc65ZHapdGoPJZrMY0z89LD+tfwYWbdU+DwpqWSQtCeNNLoyargNUE70qcso/bx5sbk+7tHHgyfalnDmuPGepGUNn6/B92qKcMLlr9KatduUchVd2/ZMMvxOVflsJzwcrnDmF4AizhTY0emp1nQDwIb/93gbdPmFbDKbCkxwcYKran6QlQuCINTXvU2S+Ut5LSoRxfBI4tNTyIiejXv+OkJeMT2qUnpVwbDPMslI38s7fXQc+fI/vGc2keodefNdvjqhIPCjvWSkppAb/Spdrp3gSL6kUtRnbM1uQ+AXmWRkZZK7L1L/cMfU1ZzMySQ3J4R+DuA+Xn/J9uR3xpuhQPQe0sscUKTFslAyzQsRs/jgsILASP18t7/hxoU1obwkffqmFsvTC4DLZCeYntzEuiPeHcvITi6V1CwmKe8WHj3Nf24BwO1itqVcR9nHg0lAws4Eoi+2Y0bYWA5EjOfbca3I2phAmPTKcHUaOV+9GHIK7HF5vI9Z1VrtOskXiTYMWjSGX74fyY+vK1FvPMr/Ow+g4/8tP4zabSCrNgbxy6Y/M6hZOl8sk9+X7IOP0p7CnBhZuSAIQv3dt84EegwegsPZPeZJrJKKfsO7ULornnR5CMA1kvh9AymIeJLgKmeZXgSMacPVLRbaAh36DsGLDGISC+ShRvAiYLgDZ3clckEeup+srQh4DOKKaj+DbEou/1zL2iHFfBQ0m53yYK2s6OcD+WkV1T6EpFQpcL2p5Yj0kqxRUBRb5jmyJ3gyK5py8wqC8D/pviXJ+lPRb/jjtFGo8H/hJZ7vkssHPf/GCnk14QHRn5AN7+KbuYAJiw7Lg3dJf8J+fBf3kwuYEnGv5ikIwh/Zvb3c2iiPM2VuBEvDX2XYoyf4KnSuSJAPtMMsnfc1+b1mEFbto8tNz3vhDHqc+5oQkSAFQWgiD9GZpCAIgiDcWw/RmaQgCIIg3FsiSQqCIAiCBSJJCoIgCIIFIkkKgiAIggUiSQqCIAiCBQ1MkqMZ+1cPeaEgCIIg/KE0LEn2cGTQC/8lKrhKJ2WCIAiC8IfRsCSZ/g2zv8ul2ytLed3Qn7ggCIIg/NE0LEkCfL+YPfmeDJkzWh7Re3I2UevW8p/p9ezkWhAEQRAeEA1Pkqj5KCmT1t6BTJCHALx74u3miXcvw7hHgiAIgvCQaUSSBLKKuWbfvtpxBvnmJV6b+Rovz/xGHhEEQRCEh0LjkuTuIkqxp4WbPKCXnXScQnmhIAiCIDwkGpckBUEQBOEPTCRJQRAEQbCgcUnyb0qcKKLwe3kAYDTTFi5mWpC8XBAEQRAeDo1Kkr4+7WlRkM0eeQAAHwYOC2RgL3m5IAiCIDwcGpEkR/O3Xo5kH/qUZHkI4EkHFGi4dlYeEARBEISHQ4OTZN+FL+Gt2c1X/1XLQwB4D+mES+GvfF/tpVhBEARBePD9qXMXj/+TF9aqx2K+ercFe2bN5ocCedBIiYtKTaHFuCAIgiA82BqWJAVBEAThf0CDL7cKgiAIwh+dSJKCIAiCYIFIkoIgCIJggUiSgiAIgmDBI82sreRlgiAIgiAA/x9sORINz/73uwAAAABJRU5ErkJggg==;" vertex="1" parent="1">
          <mxGeometry x="82" y="261" width="457" height="267" as="geometry" />
        </mxCell>
        <mxCell id="ELpaoHfYjMMyWj1WzIOa-18" value="USUARIO" style="shape=table;startSize=30;container=1;collapsible=1;childLayout=tableLayout;fixedRows=1;rowLines=0;fontStyle=1;align=center;resizeLast=1;html=1;" vertex="1" parent="1">
          <mxGeometry x="-166.47" y="767" width="180" height="180" as="geometry" />
        </mxCell>
        <mxCell id="ELpaoHfYjMMyWj1WzIOa-19" value="" style="shape=tableRow;horizontal=0;startSize=0;swimlaneHead=0;swimlaneBody=0;fillColor=none;collapsible=0;dropTarget=0;points=[[0,0.5],[1,0.5]];portConstraint=eastwest;top=0;left=0;right=0;bottom=1;" vertex="1" parent="ELpaoHfYjMMyWj1WzIOa-18">
          <mxGeometry y="30" width="180" height="30" as="geometry" />
        </mxCell>
        <mxCell id="ELpaoHfYjMMyWj1WzIOa-20" value="PK" style="shape=partialRectangle;connectable=0;fillColor=none;top=0;left=0;bottom=0;right=0;fontStyle=1;overflow=hidden;whiteSpace=wrap;html=1;" vertex="1" parent="ELpaoHfYjMMyWj1WzIOa-19">
          <mxGeometry width="30" height="30" as="geometry">
            <mxRectangle width="30" height="30" as="alternateBounds" />
          </mxGeometry>
        </mxCell>
        <mxCell id="ELpaoHfYjMMyWj1WzIOa-21" value="ID&lt;span style=&quot;white-space: pre;&quot;&gt;&#x9;&lt;span style=&quot;white-space: pre;&quot;&gt;&#x9;&lt;/span&gt;&lt;span style=&quot;white-space: pre;&quot;&gt;&#x9;&lt;/span&gt;&lt;span style=&quot;font-weight: normal;&quot;&gt;int&lt;/span&gt;&lt;/span&gt;" style="shape=partialRectangle;connectable=0;fillColor=none;top=0;left=0;bottom=0;right=0;align=left;spacingLeft=6;fontStyle=5;overflow=hidden;whiteSpace=wrap;html=1;" vertex="1" parent="ELpaoHfYjMMyWj1WzIOa-19">
          <mxGeometry x="30" width="150" height="30" as="geometry">
            <mxRectangle width="150" height="30" as="alternateBounds" />
          </mxGeometry>
        </mxCell>
        <mxCell id="ELpaoHfYjMMyWj1WzIOa-22" value="" style="shape=tableRow;horizontal=0;startSize=0;swimlaneHead=0;swimlaneBody=0;fillColor=none;collapsible=0;dropTarget=0;points=[[0,0.5],[1,0.5]];portConstraint=eastwest;top=0;left=0;right=0;bottom=0;" vertex="1" parent="ELpaoHfYjMMyWj1WzIOa-18">
          <mxGeometry y="60" width="180" height="30" as="geometry" />
        </mxCell>
        <mxCell id="ELpaoHfYjMMyWj1WzIOa-23" value="" style="shape=partialRectangle;connectable=0;fillColor=none;top=0;left=0;bottom=0;right=0;editable=1;overflow=hidden;whiteSpace=wrap;html=1;" vertex="1" parent="ELpaoHfYjMMyWj1WzIOa-22">
          <mxGeometry width="30" height="30" as="geometry">
            <mxRectangle width="30" height="30" as="alternateBounds" />
          </mxGeometry>
        </mxCell>
        <mxCell id="ELpaoHfYjMMyWj1WzIOa-24" value="nombre&lt;span style=&quot;white-space: pre;&quot;&gt;&#x9;&lt;/span&gt;&lt;span style=&quot;white-space: pre;&quot;&gt;&#x9;&lt;/span&gt;varchar" style="shape=partialRectangle;connectable=0;fillColor=none;top=0;left=0;bottom=0;right=0;align=left;spacingLeft=6;overflow=hidden;whiteSpace=wrap;html=1;" vertex="1" parent="ELpaoHfYjMMyWj1WzIOa-22">
          <mxGeometry x="30" width="150" height="30" as="geometry">
            <mxRectangle width="150" height="30" as="alternateBounds" />
          </mxGeometry>
        </mxCell>
        <mxCell id="ELpaoHfYjMMyWj1WzIOa-222" value="" style="shape=tableRow;horizontal=0;startSize=0;swimlaneHead=0;swimlaneBody=0;fillColor=none;collapsible=0;dropTarget=0;points=[[0,0.5],[1,0.5]];portConstraint=eastwest;top=0;left=0;right=0;bottom=0;" vertex="1" parent="ELpaoHfYjMMyWj1WzIOa-18">
          <mxGeometry y="90" width="180" height="30" as="geometry" />
        </mxCell>
        <mxCell id="ELpaoHfYjMMyWj1WzIOa-223" value="" style="shape=partialRectangle;connectable=0;fillColor=none;top=0;left=0;bottom=0;right=0;editable=1;overflow=hidden;whiteSpace=wrap;html=1;" vertex="1" parent="ELpaoHfYjMMyWj1WzIOa-222">
          <mxGeometry width="30" height="30" as="geometry">
            <mxRectangle width="30" height="30" as="alternateBounds" />
          </mxGeometry>
        </mxCell>
        <mxCell id="ELpaoHfYjMMyWj1WzIOa-224" value="email&lt;span style=&quot;white-space: pre;&quot;&gt;&#x9;&lt;/span&gt;&lt;span style=&quot;white-space: pre;&quot;&gt;&#x9;&lt;/span&gt;varchar" style="shape=partialRectangle;connectable=0;fillColor=none;top=0;left=0;bottom=0;right=0;align=left;spacingLeft=6;overflow=hidden;whiteSpace=wrap;html=1;" vertex="1" parent="ELpaoHfYjMMyWj1WzIOa-222">
          <mxGeometry x="30" width="150" height="30" as="geometry">
            <mxRectangle width="150" height="30" as="alternateBounds" />
          </mxGeometry>
        </mxCell>
        <mxCell id="2lWTfANe_0FT4XjMLWdA-1" value="" style="shape=tableRow;horizontal=0;startSize=0;swimlaneHead=0;swimlaneBody=0;fillColor=none;collapsible=0;dropTarget=0;points=[[0,0.5],[1,0.5]];portConstraint=eastwest;top=0;left=0;right=0;bottom=0;" vertex="1" parent="ELpaoHfYjMMyWj1WzIOa-18">
          <mxGeometry y="120" width="180" height="30" as="geometry" />
        </mxCell>
        <mxCell id="2lWTfANe_0FT4XjMLWdA-2" value="" style="shape=partialRectangle;connectable=0;fillColor=none;top=0;left=0;bottom=0;right=0;editable=1;overflow=hidden;whiteSpace=wrap;html=1;" vertex="1" parent="2lWTfANe_0FT4XjMLWdA-1">
          <mxGeometry width="30" height="30" as="geometry">
            <mxRectangle width="30" height="30" as="alternateBounds" />
          </mxGeometry>
        </mxCell>
        <mxCell id="2lWTfANe_0FT4XjMLWdA-3" value="password&lt;span style=&quot;white-space: pre;&quot;&gt;&#x9;&lt;/span&gt;&lt;span style=&quot;white-space: pre;&quot;&gt;&#x9;&lt;/span&gt;varchar" style="shape=partialRectangle;connectable=0;fillColor=none;top=0;left=0;bottom=0;right=0;align=left;spacingLeft=6;overflow=hidden;whiteSpace=wrap;html=1;" vertex="1" parent="2lWTfANe_0FT4XjMLWdA-1">
          <mxGeometry x="30" width="150" height="30" as="geometry">
            <mxRectangle width="150" height="30" as="alternateBounds" />
          </mxGeometry>
        </mxCell>
        <mxCell id="ELpaoHfYjMMyWj1WzIOa-25" value="" style="shape=tableRow;horizontal=0;startSize=0;swimlaneHead=0;swimlaneBody=0;fillColor=none;collapsible=0;dropTarget=0;points=[[0,0.5],[1,0.5]];portConstraint=eastwest;top=0;left=0;right=0;bottom=0;" vertex="1" parent="ELpaoHfYjMMyWj1WzIOa-18">
          <mxGeometry y="150" width="180" height="30" as="geometry" />
        </mxCell>
        <mxCell id="ELpaoHfYjMMyWj1WzIOa-26" value="" style="shape=partialRectangle;connectable=0;fillColor=none;top=0;left=0;bottom=0;right=0;editable=1;overflow=hidden;whiteSpace=wrap;html=1;" vertex="1" parent="ELpaoHfYjMMyWj1WzIOa-25">
          <mxGeometry width="30" height="30" as="geometry">
            <mxRectangle width="30" height="30" as="alternateBounds" />
          </mxGeometry>
        </mxCell>
        <mxCell id="ELpaoHfYjMMyWj1WzIOa-27" value="rol&lt;span style=&quot;white-space: pre;&quot;&gt;&#x9;&lt;/span&gt;&lt;span style=&quot;white-space: pre;&quot;&gt;&#x9;&lt;/span&gt;&lt;span style=&quot;white-space: pre;&quot;&gt;&#x9;&lt;/span&gt;varchar" style="shape=partialRectangle;connectable=0;fillColor=none;top=0;left=0;bottom=0;right=0;align=left;spacingLeft=6;overflow=hidden;whiteSpace=wrap;html=1;" vertex="1" parent="ELpaoHfYjMMyWj1WzIOa-25">
          <mxGeometry x="30" width="150" height="30" as="geometry">
            <mxRectangle width="150" height="30" as="alternateBounds" />
          </mxGeometry>
        </mxCell>
        <mxCell id="ELpaoHfYjMMyWj1WzIOa-57" value="RUTINA" style="shape=table;startSize=30;container=1;collapsible=1;childLayout=tableLayout;fixedRows=1;rowLines=0;fontStyle=1;align=center;resizeLast=1;html=1;" vertex="1" parent="1">
          <mxGeometry x="210" y="790" width="180" height="155" as="geometry" />
        </mxCell>
        <mxCell id="ELpaoHfYjMMyWj1WzIOa-58" value="" style="shape=tableRow;horizontal=0;startSize=0;swimlaneHead=0;swimlaneBody=0;fillColor=none;collapsible=0;dropTarget=0;points=[[0,0.5],[1,0.5]];portConstraint=eastwest;top=0;left=0;right=0;bottom=1;" vertex="1" parent="ELpaoHfYjMMyWj1WzIOa-57">
          <mxGeometry y="30" width="180" height="35" as="geometry" />
        </mxCell>
        <mxCell id="ELpaoHfYjMMyWj1WzIOa-59" value="PK" style="shape=partialRectangle;connectable=0;fillColor=none;top=0;left=0;bottom=0;right=0;fontStyle=1;overflow=hidden;whiteSpace=wrap;html=1;" vertex="1" parent="ELpaoHfYjMMyWj1WzIOa-58">
          <mxGeometry width="30" height="35" as="geometry">
            <mxRectangle width="30" height="35" as="alternateBounds" />
          </mxGeometry>
        </mxCell>
        <mxCell id="ELpaoHfYjMMyWj1WzIOa-60" value="ID&lt;span style=&quot;white-space: pre;&quot;&gt;&#x9;&lt;span style=&quot;white-space: pre;&quot;&gt;&#x9;&lt;/span&gt;&lt;span style=&quot;white-space: pre;&quot;&gt;&#x9;&lt;/span&gt;&lt;span style=&quot;font-weight: normal;&quot;&gt;int&lt;/span&gt;&lt;/span&gt;" style="shape=partialRectangle;connectable=0;fillColor=none;top=0;left=0;bottom=0;right=0;align=left;spacingLeft=6;fontStyle=5;overflow=hidden;whiteSpace=wrap;html=1;" vertex="1" parent="ELpaoHfYjMMyWj1WzIOa-58">
          <mxGeometry x="30" width="150" height="35" as="geometry">
            <mxRectangle width="150" height="35" as="alternateBounds" />
          </mxGeometry>
        </mxCell>
        <mxCell id="ELpaoHfYjMMyWj1WzIOa-73" value="" style="shape=tableRow;horizontal=0;startSize=0;swimlaneHead=0;swimlaneBody=0;fillColor=none;collapsible=0;dropTarget=0;points=[[0,0.5],[1,0.5]];portConstraint=eastwest;top=0;left=0;right=0;bottom=0;" vertex="1" parent="ELpaoHfYjMMyWj1WzIOa-57">
          <mxGeometry y="65" width="180" height="30" as="geometry" />
        </mxCell>
        <mxCell id="ELpaoHfYjMMyWj1WzIOa-74" value="" style="shape=partialRectangle;connectable=0;fillColor=none;top=0;left=0;bottom=0;right=0;editable=1;overflow=hidden;whiteSpace=wrap;html=1;" vertex="1" parent="ELpaoHfYjMMyWj1WzIOa-73">
          <mxGeometry width="30" height="30" as="geometry">
            <mxRectangle width="30" height="30" as="alternateBounds" />
          </mxGeometry>
        </mxCell>
        <mxCell id="ELpaoHfYjMMyWj1WzIOa-75" value="descripcion&lt;span style=&quot;white-space: pre;&quot;&gt;&#x9;&lt;/span&gt;varchar" style="shape=partialRectangle;connectable=0;fillColor=none;top=0;left=0;bottom=0;right=0;align=left;spacingLeft=6;overflow=hidden;whiteSpace=wrap;html=1;" vertex="1" parent="ELpaoHfYjMMyWj1WzIOa-73">
          <mxGeometry x="30" width="150" height="30" as="geometry">
            <mxRectangle width="150" height="30" as="alternateBounds" />
          </mxGeometry>
        </mxCell>
        <mxCell id="ELpaoHfYjMMyWj1WzIOa-280" value="" style="shape=tableRow;horizontal=0;startSize=0;swimlaneHead=0;swimlaneBody=0;fillColor=none;collapsible=0;dropTarget=0;points=[[0,0.5],[1,0.5]];portConstraint=eastwest;top=0;left=0;right=0;bottom=0;" vertex="1" parent="ELpaoHfYjMMyWj1WzIOa-57">
          <mxGeometry y="95" width="180" height="30" as="geometry" />
        </mxCell>
        <mxCell id="ELpaoHfYjMMyWj1WzIOa-281" value="&lt;b&gt;FK&lt;/b&gt;" style="shape=partialRectangle;connectable=0;fillColor=none;top=0;left=0;bottom=0;right=0;editable=1;overflow=hidden;whiteSpace=wrap;html=1;" vertex="1" parent="ELpaoHfYjMMyWj1WzIOa-280">
          <mxGeometry width="30" height="30" as="geometry">
            <mxRectangle width="30" height="30" as="alternateBounds" />
          </mxGeometry>
        </mxCell>
        <mxCell id="ELpaoHfYjMMyWj1WzIOa-282" value="entrenador_id&lt;span style=&quot;white-space: pre;&quot;&gt;&#x9;&lt;/span&gt;int" style="shape=partialRectangle;connectable=0;fillColor=none;top=0;left=0;bottom=0;right=0;align=left;spacingLeft=6;overflow=hidden;whiteSpace=wrap;html=1;" vertex="1" parent="ELpaoHfYjMMyWj1WzIOa-280">
          <mxGeometry x="30" width="150" height="30" as="geometry">
            <mxRectangle width="150" height="30" as="alternateBounds" />
          </mxGeometry>
        </mxCell>
        <mxCell id="ELpaoHfYjMMyWj1WzIOa-284" value="" style="shape=tableRow;horizontal=0;startSize=0;swimlaneHead=0;swimlaneBody=0;fillColor=none;collapsible=0;dropTarget=0;points=[[0,0.5],[1,0.5]];portConstraint=eastwest;top=0;left=0;right=0;bottom=0;" vertex="1" parent="ELpaoHfYjMMyWj1WzIOa-57">
          <mxGeometry y="125" width="180" height="30" as="geometry" />
        </mxCell>
        <mxCell id="ELpaoHfYjMMyWj1WzIOa-285" value="&lt;b&gt;FK&lt;/b&gt;" style="shape=partialRectangle;connectable=0;fillColor=none;top=0;left=0;bottom=0;right=0;editable=1;overflow=hidden;whiteSpace=wrap;html=1;" vertex="1" parent="ELpaoHfYjMMyWj1WzIOa-284">
          <mxGeometry width="30" height="30" as="geometry">
            <mxRectangle width="30" height="30" as="alternateBounds" />
          </mxGeometry>
        </mxCell>
        <mxCell id="ELpaoHfYjMMyWj1WzIOa-286" value="usuario_id&lt;span style=&quot;white-space: pre;&quot;&gt;&#x9;&lt;/span&gt;int" style="shape=partialRectangle;connectable=0;fillColor=none;top=0;left=0;bottom=0;right=0;align=left;spacingLeft=6;overflow=hidden;whiteSpace=wrap;html=1;" vertex="1" parent="ELpaoHfYjMMyWj1WzIOa-284">
          <mxGeometry x="30" width="150" height="30" as="geometry">
            <mxRectangle width="150" height="30" as="alternateBounds" />
          </mxGeometry>
        </mxCell>
        <mxCell id="ELpaoHfYjMMyWj1WzIOa-76" value="EJERCICIO" style="shape=table;startSize=30;container=1;collapsible=1;childLayout=tableLayout;fixedRows=1;rowLines=0;fontStyle=1;align=center;resizeLast=1;html=1;" vertex="1" parent="1">
          <mxGeometry x="210" y="1330" width="180" height="150" as="geometry" />
        </mxCell>
        <mxCell id="ELpaoHfYjMMyWj1WzIOa-77" value="" style="shape=tableRow;horizontal=0;startSize=0;swimlaneHead=0;swimlaneBody=0;fillColor=none;collapsible=0;dropTarget=0;points=[[0,0.5],[1,0.5]];portConstraint=eastwest;top=0;left=0;right=0;bottom=1;" vertex="1" parent="ELpaoHfYjMMyWj1WzIOa-76">
          <mxGeometry y="30" width="180" height="30" as="geometry" />
        </mxCell>
        <mxCell id="ELpaoHfYjMMyWj1WzIOa-78" value="PK" style="shape=partialRectangle;connectable=0;fillColor=none;top=0;left=0;bottom=0;right=0;fontStyle=1;overflow=hidden;whiteSpace=wrap;html=1;" vertex="1" parent="ELpaoHfYjMMyWj1WzIOa-77">
          <mxGeometry width="30" height="30" as="geometry">
            <mxRectangle width="30" height="30" as="alternateBounds" />
          </mxGeometry>
        </mxCell>
        <mxCell id="ELpaoHfYjMMyWj1WzIOa-79" value="ID&lt;span style=&quot;white-space: pre;&quot;&gt;&#x9;&lt;span style=&quot;white-space: pre;&quot;&gt;&#x9;&lt;/span&gt;&lt;span style=&quot;white-space: pre;&quot;&gt;&#x9;&lt;/span&gt;&lt;span style=&quot;font-weight: normal;&quot;&gt;int&lt;/span&gt;&lt;/span&gt;" style="shape=partialRectangle;connectable=0;fillColor=none;top=0;left=0;bottom=0;right=0;align=left;spacingLeft=6;fontStyle=5;overflow=hidden;whiteSpace=wrap;html=1;" vertex="1" parent="ELpaoHfYjMMyWj1WzIOa-77">
          <mxGeometry x="30" width="150" height="30" as="geometry">
            <mxRectangle width="150" height="30" as="alternateBounds" />
          </mxGeometry>
        </mxCell>
        <mxCell id="ELpaoHfYjMMyWj1WzIOa-80" value="" style="shape=tableRow;horizontal=0;startSize=0;swimlaneHead=0;swimlaneBody=0;fillColor=none;collapsible=0;dropTarget=0;points=[[0,0.5],[1,0.5]];portConstraint=eastwest;top=0;left=0;right=0;bottom=0;" vertex="1" parent="ELpaoHfYjMMyWj1WzIOa-76">
          <mxGeometry y="60" width="180" height="30" as="geometry" />
        </mxCell>
        <mxCell id="ELpaoHfYjMMyWj1WzIOa-81" value="" style="shape=partialRectangle;connectable=0;fillColor=none;top=0;left=0;bottom=0;right=0;editable=1;overflow=hidden;whiteSpace=wrap;html=1;" vertex="1" parent="ELpaoHfYjMMyWj1WzIOa-80">
          <mxGeometry width="30" height="30" as="geometry">
            <mxRectangle width="30" height="30" as="alternateBounds" />
          </mxGeometry>
        </mxCell>
        <mxCell id="ELpaoHfYjMMyWj1WzIOa-82" value="nombre&lt;span style=&quot;white-space: pre;&quot;&gt;&#x9;&lt;/span&gt;&lt;span style=&quot;white-space: pre;&quot;&gt;&#x9;&lt;/span&gt;varchar" style="shape=partialRectangle;connectable=0;fillColor=none;top=0;left=0;bottom=0;right=0;align=left;spacingLeft=6;overflow=hidden;whiteSpace=wrap;html=1;" vertex="1" parent="ELpaoHfYjMMyWj1WzIOa-80">
          <mxGeometry x="30" width="150" height="30" as="geometry">
            <mxRectangle width="150" height="30" as="alternateBounds" />
          </mxGeometry>
        </mxCell>
        <mxCell id="ELpaoHfYjMMyWj1WzIOa-83" value="" style="shape=tableRow;horizontal=0;startSize=0;swimlaneHead=0;swimlaneBody=0;fillColor=none;collapsible=0;dropTarget=0;points=[[0,0.5],[1,0.5]];portConstraint=eastwest;top=0;left=0;right=0;bottom=0;" vertex="1" parent="ELpaoHfYjMMyWj1WzIOa-76">
          <mxGeometry y="90" width="180" height="30" as="geometry" />
        </mxCell>
        <mxCell id="ELpaoHfYjMMyWj1WzIOa-84" value="" style="shape=partialRectangle;connectable=0;fillColor=none;top=0;left=0;bottom=0;right=0;editable=1;overflow=hidden;whiteSpace=wrap;html=1;" vertex="1" parent="ELpaoHfYjMMyWj1WzIOa-83">
          <mxGeometry width="30" height="30" as="geometry">
            <mxRectangle width="30" height="30" as="alternateBounds" />
          </mxGeometry>
        </mxCell>
        <mxCell id="ELpaoHfYjMMyWj1WzIOa-85" value="tipo&lt;span style=&quot;white-space: pre;&quot;&gt;&#x9;&lt;/span&gt;&lt;span style=&quot;white-space: pre;&quot;&gt;&#x9;&lt;/span&gt;&lt;span style=&quot;white-space: pre;&quot;&gt;&#x9;&lt;/span&gt;varchar" style="shape=partialRectangle;connectable=0;fillColor=none;top=0;left=0;bottom=0;right=0;align=left;spacingLeft=6;overflow=hidden;whiteSpace=wrap;html=1;" vertex="1" parent="ELpaoHfYjMMyWj1WzIOa-83">
          <mxGeometry x="30" width="150" height="30" as="geometry">
            <mxRectangle width="150" height="30" as="alternateBounds" />
          </mxGeometry>
        </mxCell>
        <mxCell id="ELpaoHfYjMMyWj1WzIOa-146" value="" style="shape=tableRow;horizontal=0;startSize=0;swimlaneHead=0;swimlaneBody=0;fillColor=none;collapsible=0;dropTarget=0;points=[[0,0.5],[1,0.5]];portConstraint=eastwest;top=0;left=0;right=0;bottom=0;" vertex="1" parent="ELpaoHfYjMMyWj1WzIOa-76">
          <mxGeometry y="120" width="180" height="30" as="geometry" />
        </mxCell>
        <mxCell id="ELpaoHfYjMMyWj1WzIOa-147" value="" style="shape=partialRectangle;connectable=0;fillColor=none;top=0;left=0;bottom=0;right=0;editable=1;overflow=hidden;whiteSpace=wrap;html=1;" vertex="1" parent="ELpaoHfYjMMyWj1WzIOa-146">
          <mxGeometry width="30" height="30" as="geometry">
            <mxRectangle width="30" height="30" as="alternateBounds" />
          </mxGeometry>
        </mxCell>
        <mxCell id="ELpaoHfYjMMyWj1WzIOa-148" value="descripcion&lt;span style=&quot;white-space: pre;&quot;&gt;&#x9;&lt;/span&gt;varchar" style="shape=partialRectangle;connectable=0;fillColor=none;top=0;left=0;bottom=0;right=0;align=left;spacingLeft=6;overflow=hidden;whiteSpace=wrap;html=1;" vertex="1" parent="ELpaoHfYjMMyWj1WzIOa-146">
          <mxGeometry x="30" width="150" height="30" as="geometry">
            <mxRectangle width="150" height="30" as="alternateBounds" />
          </mxGeometry>
        </mxCell>
        <mxCell id="ELpaoHfYjMMyWj1WzIOa-155" value="PROGRESO" style="shape=table;startSize=30;container=1;collapsible=1;childLayout=tableLayout;fixedRows=1;rowLines=0;fontStyle=1;align=center;resizeLast=1;html=1;" vertex="1" parent="1">
          <mxGeometry x="-215" y="1045" width="277.0532093877379" height="300" as="geometry" />
        </mxCell>
        <mxCell id="ELpaoHfYjMMyWj1WzIOa-156" value="" style="shape=tableRow;horizontal=0;startSize=0;swimlaneHead=0;swimlaneBody=0;fillColor=none;collapsible=0;dropTarget=0;points=[[0,0.5],[1,0.5]];portConstraint=eastwest;top=0;left=0;right=0;bottom=1;" vertex="1" parent="ELpaoHfYjMMyWj1WzIOa-155">
          <mxGeometry y="30" width="277.0532093877379" height="30" as="geometry" />
        </mxCell>
        <mxCell id="ELpaoHfYjMMyWj1WzIOa-157" value="PK" style="shape=partialRectangle;connectable=0;fillColor=none;top=0;left=0;bottom=0;right=0;fontStyle=1;overflow=hidden;whiteSpace=wrap;html=1;" vertex="1" parent="ELpaoHfYjMMyWj1WzIOa-156">
          <mxGeometry width="30" height="30" as="geometry">
            <mxRectangle width="30" height="30" as="alternateBounds" />
          </mxGeometry>
        </mxCell>
        <mxCell id="ELpaoHfYjMMyWj1WzIOa-158" value="ID&lt;span style=&quot;white-space: pre;&quot;&gt;&#x9;&lt;span style=&quot;white-space: pre;&quot;&gt;&#x9;&lt;/span&gt;&lt;span style=&quot;white-space: pre;&quot;&gt;&#x9;&lt;/span&gt;&lt;span style=&quot;font-weight: normal;&quot;&gt;int&lt;/span&gt;&lt;/span&gt;" style="shape=partialRectangle;connectable=0;fillColor=none;top=0;left=0;bottom=0;right=0;align=left;spacingLeft=6;fontStyle=5;overflow=hidden;whiteSpace=wrap;html=1;" vertex="1" parent="ELpaoHfYjMMyWj1WzIOa-156">
          <mxGeometry x="30" width="247.05320938773792" height="30" as="geometry">
            <mxRectangle width="247.05320938773792" height="30" as="alternateBounds" />
          </mxGeometry>
        </mxCell>
        <mxCell id="ELpaoHfYjMMyWj1WzIOa-159" value="" style="shape=tableRow;horizontal=0;startSize=0;swimlaneHead=0;swimlaneBody=0;fillColor=none;collapsible=0;dropTarget=0;points=[[0,0.5],[1,0.5]];portConstraint=eastwest;top=0;left=0;right=0;bottom=0;" vertex="1" parent="ELpaoHfYjMMyWj1WzIOa-155">
          <mxGeometry y="60" width="277.0532093877379" height="30" as="geometry" />
        </mxCell>
        <mxCell id="ELpaoHfYjMMyWj1WzIOa-160" value="" style="shape=partialRectangle;connectable=0;fillColor=none;top=0;left=0;bottom=0;right=0;editable=1;overflow=hidden;whiteSpace=wrap;html=1;" vertex="1" parent="ELpaoHfYjMMyWj1WzIOa-159">
          <mxGeometry width="30" height="30" as="geometry">
            <mxRectangle width="30" height="30" as="alternateBounds" />
          </mxGeometry>
        </mxCell>
        <mxCell id="ELpaoHfYjMMyWj1WzIOa-161" value="fecha&lt;span style=&quot;white-space: pre;&quot;&gt;&#x9;&lt;/span&gt;&lt;span style=&quot;white-space: pre;&quot;&gt;&#x9;&lt;span style=&quot;white-space: pre;&quot;&gt;&#x9;&lt;/span&gt;&lt;span style=&quot;white-space: pre;&quot;&gt;&#x9;&lt;span style=&quot;white-space: pre;&quot;&gt;&#x9;&lt;/span&gt;&lt;/span&gt;&lt;/span&gt;date" style="shape=partialRectangle;connectable=0;fillColor=none;top=0;left=0;bottom=0;right=0;align=left;spacingLeft=6;overflow=hidden;whiteSpace=wrap;html=1;" vertex="1" parent="ELpaoHfYjMMyWj1WzIOa-159">
          <mxGeometry x="30" width="247.05320938773792" height="30" as="geometry">
            <mxRectangle width="247.05320938773792" height="30" as="alternateBounds" />
          </mxGeometry>
        </mxCell>
        <mxCell id="dIYgbRWNfferq7LbjrUM-10" value="" style="shape=tableRow;horizontal=0;startSize=0;swimlaneHead=0;swimlaneBody=0;fillColor=none;collapsible=0;dropTarget=0;points=[[0,0.5],[1,0.5]];portConstraint=eastwest;top=0;left=0;right=0;bottom=0;" vertex="1" parent="ELpaoHfYjMMyWj1WzIOa-155">
          <mxGeometry y="90" width="277.0532093877379" height="30" as="geometry" />
        </mxCell>
        <mxCell id="dIYgbRWNfferq7LbjrUM-11" value="" style="shape=partialRectangle;connectable=0;fillColor=none;top=0;left=0;bottom=0;right=0;editable=1;overflow=hidden;whiteSpace=wrap;html=1;" vertex="1" parent="dIYgbRWNfferq7LbjrUM-10">
          <mxGeometry width="30" height="30" as="geometry">
            <mxRectangle width="30" height="30" as="alternateBounds" />
          </mxGeometry>
        </mxCell>
        <mxCell id="dIYgbRWNfferq7LbjrUM-12" value="series_completadas&lt;span style=&quot;white-space: pre;&quot;&gt;&#x9;&lt;span style=&quot;white-space: pre;&quot;&gt;&#x9;&lt;/span&gt;i&lt;/span&gt;nt" style="shape=partialRectangle;connectable=0;fillColor=none;top=0;left=0;bottom=0;right=0;align=left;spacingLeft=6;overflow=hidden;whiteSpace=wrap;html=1;" vertex="1" parent="dIYgbRWNfferq7LbjrUM-10">
          <mxGeometry x="30" width="247.05320938773792" height="30" as="geometry">
            <mxRectangle width="247.05320938773792" height="30" as="alternateBounds" />
          </mxGeometry>
        </mxCell>
        <mxCell id="dIYgbRWNfferq7LbjrUM-13" value="" style="shape=tableRow;horizontal=0;startSize=0;swimlaneHead=0;swimlaneBody=0;fillColor=none;collapsible=0;dropTarget=0;points=[[0,0.5],[1,0.5]];portConstraint=eastwest;top=0;left=0;right=0;bottom=0;" vertex="1" parent="ELpaoHfYjMMyWj1WzIOa-155">
          <mxGeometry y="120" width="277.0532093877379" height="30" as="geometry" />
        </mxCell>
        <mxCell id="dIYgbRWNfferq7LbjrUM-14" value="" style="shape=partialRectangle;connectable=0;fillColor=none;top=0;left=0;bottom=0;right=0;editable=1;overflow=hidden;whiteSpace=wrap;html=1;" vertex="1" parent="dIYgbRWNfferq7LbjrUM-13">
          <mxGeometry width="30" height="30" as="geometry">
            <mxRectangle width="30" height="30" as="alternateBounds" />
          </mxGeometry>
        </mxCell>
        <mxCell id="dIYgbRWNfferq7LbjrUM-15" value="repeticiones_completadas&lt;span style=&quot;white-space: pre;&quot;&gt;&#x9;&lt;/span&gt;int" style="shape=partialRectangle;connectable=0;fillColor=none;top=0;left=0;bottom=0;right=0;align=left;spacingLeft=6;overflow=hidden;whiteSpace=wrap;html=1;" vertex="1" parent="dIYgbRWNfferq7LbjrUM-13">
          <mxGeometry x="30" width="247.05320938773792" height="30" as="geometry">
            <mxRectangle width="247.05320938773792" height="30" as="alternateBounds" />
          </mxGeometry>
        </mxCell>
        <mxCell id="ELpaoHfYjMMyWj1WzIOa-162" value="" style="shape=tableRow;horizontal=0;startSize=0;swimlaneHead=0;swimlaneBody=0;fillColor=none;collapsible=0;dropTarget=0;points=[[0,0.5],[1,0.5]];portConstraint=eastwest;top=0;left=0;right=0;bottom=0;" vertex="1" parent="ELpaoHfYjMMyWj1WzIOa-155">
          <mxGeometry y="150" width="277.0532093877379" height="30" as="geometry" />
        </mxCell>
        <mxCell id="ELpaoHfYjMMyWj1WzIOa-163" value="" style="shape=partialRectangle;connectable=0;fillColor=none;top=0;left=0;bottom=0;right=0;editable=1;overflow=hidden;whiteSpace=wrap;html=1;" vertex="1" parent="ELpaoHfYjMMyWj1WzIOa-162">
          <mxGeometry width="30" height="30" as="geometry">
            <mxRectangle width="30" height="30" as="alternateBounds" />
          </mxGeometry>
        </mxCell>
        <mxCell id="ELpaoHfYjMMyWj1WzIOa-164" value="peso_utilizado&lt;span style=&quot;white-space: pre;&quot;&gt;&#x9;&lt;/span&gt;&lt;span style=&quot;white-space: pre;&quot;&gt;&#x9;&lt;/span&gt;&lt;span style=&quot;white-space: pre;&quot;&gt;&#x9;&lt;span style=&quot;white-space: pre;&quot;&gt;&#x9;&lt;/span&gt;i&lt;/span&gt;nt" style="shape=partialRectangle;connectable=0;fillColor=none;top=0;left=0;bottom=0;right=0;align=left;spacingLeft=6;overflow=hidden;whiteSpace=wrap;html=1;" vertex="1" parent="ELpaoHfYjMMyWj1WzIOa-162">
          <mxGeometry x="30" width="247.05320938773792" height="30" as="geometry">
            <mxRectangle width="247.05320938773792" height="30" as="alternateBounds" />
          </mxGeometry>
        </mxCell>
        <mxCell id="ELpaoHfYjMMyWj1WzIOa-168" value="" style="shape=tableRow;horizontal=0;startSize=0;swimlaneHead=0;swimlaneBody=0;fillColor=none;collapsible=0;dropTarget=0;points=[[0,0.5],[1,0.5]];portConstraint=eastwest;top=0;left=0;right=0;bottom=0;" vertex="1" parent="ELpaoHfYjMMyWj1WzIOa-155">
          <mxGeometry y="180" width="277.0532093877379" height="30" as="geometry" />
        </mxCell>
        <mxCell id="ELpaoHfYjMMyWj1WzIOa-169" value="" style="shape=partialRectangle;connectable=0;fillColor=none;top=0;left=0;bottom=0;right=0;editable=1;overflow=hidden;whiteSpace=wrap;html=1;" vertex="1" parent="ELpaoHfYjMMyWj1WzIOa-168">
          <mxGeometry width="30" height="30" as="geometry">
            <mxRectangle width="30" height="30" as="alternateBounds" />
          </mxGeometry>
        </mxCell>
        <mxCell id="ELpaoHfYjMMyWj1WzIOa-170" value="notas&lt;span style=&quot;white-space: pre;&quot;&gt;&#x9;&lt;/span&gt;&lt;span style=&quot;white-space: pre;&quot;&gt;&#x9;&lt;span style=&quot;white-space: pre;&quot;&gt;&#x9;&lt;/span&gt;&lt;span style=&quot;white-space: pre;&quot;&gt;&#x9;&lt;span style=&quot;white-space: pre;&quot;&gt;&#x9;&lt;/span&gt;&lt;/span&gt;&lt;/span&gt;varchar" style="shape=partialRectangle;connectable=0;fillColor=none;top=0;left=0;bottom=0;right=0;align=left;spacingLeft=6;overflow=hidden;whiteSpace=wrap;html=1;" vertex="1" parent="ELpaoHfYjMMyWj1WzIOa-168">
          <mxGeometry x="30" width="247.05320938773792" height="30" as="geometry">
            <mxRectangle width="247.05320938773792" height="30" as="alternateBounds" />
          </mxGeometry>
        </mxCell>
        <mxCell id="ELpaoHfYjMMyWj1WzIOa-171" value="" style="shape=tableRow;horizontal=0;startSize=0;swimlaneHead=0;swimlaneBody=0;fillColor=none;collapsible=0;dropTarget=0;points=[[0,0.5],[1,0.5]];portConstraint=eastwest;top=0;left=0;right=0;bottom=0;movable=1;resizable=1;rotatable=1;deletable=1;editable=1;locked=0;connectable=1;" vertex="1" parent="ELpaoHfYjMMyWj1WzIOa-155">
          <mxGeometry y="210" width="277.0532093877379" height="30" as="geometry" />
        </mxCell>
        <mxCell id="ELpaoHfYjMMyWj1WzIOa-172" value="&lt;b&gt;FK&lt;/b&gt;" style="shape=partialRectangle;connectable=0;fillColor=none;top=0;left=0;bottom=0;right=0;editable=1;overflow=hidden;whiteSpace=wrap;html=1;" vertex="1" parent="ELpaoHfYjMMyWj1WzIOa-171">
          <mxGeometry width="30" height="30" as="geometry">
            <mxRectangle width="30" height="30" as="alternateBounds" />
          </mxGeometry>
        </mxCell>
        <mxCell id="ELpaoHfYjMMyWj1WzIOa-173" value="usuario_id&lt;span style=&quot;white-space: pre;&quot;&gt;&#x9;&lt;span style=&quot;white-space: pre;&quot;&gt;&#x9;&lt;/span&gt;&lt;span style=&quot;white-space: pre;&quot;&gt;&#x9;&lt;span style=&quot;white-space: pre;&quot;&gt;&#x9;&lt;/span&gt;&lt;/span&gt;&lt;/span&gt;int" style="shape=partialRectangle;connectable=0;fillColor=none;top=0;left=0;bottom=0;right=0;align=left;spacingLeft=6;overflow=hidden;whiteSpace=wrap;html=1;" vertex="1" parent="ELpaoHfYjMMyWj1WzIOa-171">
          <mxGeometry x="30" width="247.05320938773792" height="30" as="geometry">
            <mxRectangle width="247.05320938773792" height="30" as="alternateBounds" />
          </mxGeometry>
        </mxCell>
        <mxCell id="dIYgbRWNfferq7LbjrUM-4" value="" style="shape=tableRow;horizontal=0;startSize=0;swimlaneHead=0;swimlaneBody=0;fillColor=none;collapsible=0;dropTarget=0;points=[[0,0.5],[1,0.5]];portConstraint=eastwest;top=0;left=0;right=0;bottom=0;movable=1;resizable=1;rotatable=1;deletable=1;editable=1;locked=0;connectable=1;" vertex="1" parent="ELpaoHfYjMMyWj1WzIOa-155">
          <mxGeometry y="240" width="277.0532093877379" height="30" as="geometry" />
        </mxCell>
        <mxCell id="dIYgbRWNfferq7LbjrUM-5" value="&lt;b&gt;FK&lt;/b&gt;" style="shape=partialRectangle;connectable=0;fillColor=none;top=0;left=0;bottom=0;right=0;editable=1;overflow=hidden;whiteSpace=wrap;html=1;" vertex="1" parent="dIYgbRWNfferq7LbjrUM-4">
          <mxGeometry width="30" height="30" as="geometry">
            <mxRectangle width="30" height="30" as="alternateBounds" />
          </mxGeometry>
        </mxCell>
        <mxCell id="dIYgbRWNfferq7LbjrUM-6" value="rutina_id&lt;span style=&quot;white-space: pre;&quot;&gt;&#x9;&lt;/span&gt;&lt;span style=&quot;white-space: pre;&quot;&gt;&#x9;&lt;span style=&quot;white-space: pre;&quot;&gt;&#x9;&lt;/span&gt;&lt;span style=&quot;white-space: pre;&quot;&gt;&#x9;&lt;span style=&quot;white-space: pre;&quot;&gt;&#x9;&lt;/span&gt;&lt;/span&gt;&lt;/span&gt;int" style="shape=partialRectangle;connectable=0;fillColor=none;top=0;left=0;bottom=0;right=0;align=left;spacingLeft=6;overflow=hidden;whiteSpace=wrap;html=1;" vertex="1" parent="dIYgbRWNfferq7LbjrUM-4">
          <mxGeometry x="30" width="247.05320938773792" height="30" as="geometry">
            <mxRectangle width="247.05320938773792" height="30" as="alternateBounds" />
          </mxGeometry>
        </mxCell>
        <mxCell id="dIYgbRWNfferq7LbjrUM-7" value="" style="shape=tableRow;horizontal=0;startSize=0;swimlaneHead=0;swimlaneBody=0;fillColor=none;collapsible=0;dropTarget=0;points=[[0,0.5],[1,0.5]];portConstraint=eastwest;top=0;left=0;right=0;bottom=0;movable=1;resizable=1;rotatable=1;deletable=1;editable=1;locked=0;connectable=1;" vertex="1" parent="ELpaoHfYjMMyWj1WzIOa-155">
          <mxGeometry y="270" width="277.0532093877379" height="30" as="geometry" />
        </mxCell>
        <mxCell id="dIYgbRWNfferq7LbjrUM-8" value="&lt;b&gt;FK&lt;/b&gt;" style="shape=partialRectangle;connectable=0;fillColor=none;top=0;left=0;bottom=0;right=0;editable=1;overflow=hidden;whiteSpace=wrap;html=1;" vertex="1" parent="dIYgbRWNfferq7LbjrUM-7">
          <mxGeometry width="30" height="30" as="geometry">
            <mxRectangle width="30" height="30" as="alternateBounds" />
          </mxGeometry>
        </mxCell>
        <mxCell id="dIYgbRWNfferq7LbjrUM-9" value="ejercicio_id&lt;span style=&quot;white-space: pre;&quot;&gt;&#x9;&lt;span style=&quot;white-space: pre;&quot;&gt;&#x9;&lt;/span&gt;&lt;span style=&quot;white-space: pre;&quot;&gt;&#x9;&lt;span style=&quot;white-space: pre;&quot;&gt;&#x9;&lt;/span&gt;&lt;/span&gt;&lt;/span&gt;int" style="shape=partialRectangle;connectable=0;fillColor=none;top=0;left=0;bottom=0;right=0;align=left;spacingLeft=6;overflow=hidden;whiteSpace=wrap;html=1;" vertex="1" parent="dIYgbRWNfferq7LbjrUM-7">
          <mxGeometry x="30" width="247.05320938773792" height="30" as="geometry">
            <mxRectangle width="247.05320938773792" height="30" as="alternateBounds" />
          </mxGeometry>
        </mxCell>
        <mxCell id="ELpaoHfYjMMyWj1WzIOa-177" value="RUTINA_EJERCICIO" style="shape=table;startSize=30;container=1;collapsible=1;childLayout=tableLayout;fixedRows=1;rowLines=0;fontStyle=1;align=center;resizeLast=1;html=1;" vertex="1" parent="1">
          <mxGeometry x="210" y="1068" width="180" height="180" as="geometry" />
        </mxCell>
        <mxCell id="ELpaoHfYjMMyWj1WzIOa-181" value="" style="shape=tableRow;horizontal=0;startSize=0;swimlaneHead=0;swimlaneBody=0;fillColor=none;collapsible=0;dropTarget=0;points=[[0,0.5],[1,0.5]];portConstraint=eastwest;top=0;left=0;right=0;bottom=0;" vertex="1" parent="ELpaoHfYjMMyWj1WzIOa-177">
          <mxGeometry y="30" width="180" height="30" as="geometry" />
        </mxCell>
        <mxCell id="ELpaoHfYjMMyWj1WzIOa-182" value="" style="shape=partialRectangle;connectable=0;fillColor=none;top=0;left=0;bottom=0;right=0;editable=1;overflow=hidden;whiteSpace=wrap;html=1;" vertex="1" parent="ELpaoHfYjMMyWj1WzIOa-181">
          <mxGeometry width="30" height="30" as="geometry">
            <mxRectangle width="30" height="30" as="alternateBounds" />
          </mxGeometry>
        </mxCell>
        <mxCell id="ELpaoHfYjMMyWj1WzIOa-183" value="series&lt;span style=&quot;white-space: pre;&quot;&gt;&#x9;&lt;/span&gt;&lt;span style=&quot;white-space: pre;&quot;&gt;&#x9;&lt;/span&gt;int" style="shape=partialRectangle;connectable=0;fillColor=none;top=0;left=0;bottom=0;right=0;align=left;spacingLeft=6;overflow=hidden;whiteSpace=wrap;html=1;" vertex="1" parent="ELpaoHfYjMMyWj1WzIOa-181">
          <mxGeometry x="30" width="150" height="30" as="geometry">
            <mxRectangle width="150" height="30" as="alternateBounds" />
          </mxGeometry>
        </mxCell>
        <mxCell id="ELpaoHfYjMMyWj1WzIOa-187" value="" style="shape=tableRow;horizontal=0;startSize=0;swimlaneHead=0;swimlaneBody=0;fillColor=none;collapsible=0;dropTarget=0;points=[[0,0.5],[1,0.5]];portConstraint=eastwest;top=0;left=0;right=0;bottom=0;" vertex="1" parent="ELpaoHfYjMMyWj1WzIOa-177">
          <mxGeometry y="60" width="180" height="30" as="geometry" />
        </mxCell>
        <mxCell id="ELpaoHfYjMMyWj1WzIOa-188" value="" style="shape=partialRectangle;connectable=0;fillColor=none;top=0;left=0;bottom=0;right=0;editable=1;overflow=hidden;whiteSpace=wrap;html=1;" vertex="1" parent="ELpaoHfYjMMyWj1WzIOa-187">
          <mxGeometry width="30" height="30" as="geometry">
            <mxRectangle width="30" height="30" as="alternateBounds" />
          </mxGeometry>
        </mxCell>
        <mxCell id="ELpaoHfYjMMyWj1WzIOa-189" value="repeticiones&lt;span style=&quot;white-space: pre;&quot;&gt;&#x9;&lt;/span&gt;int" style="shape=partialRectangle;connectable=0;fillColor=none;top=0;left=0;bottom=0;right=0;align=left;spacingLeft=6;overflow=hidden;whiteSpace=wrap;html=1;" vertex="1" parent="ELpaoHfYjMMyWj1WzIOa-187">
          <mxGeometry x="30" width="150" height="30" as="geometry">
            <mxRectangle width="150" height="30" as="alternateBounds" />
          </mxGeometry>
        </mxCell>
        <mxCell id="dIYgbRWNfferq7LbjrUM-1" value="" style="shape=tableRow;horizontal=0;startSize=0;swimlaneHead=0;swimlaneBody=0;fillColor=none;collapsible=0;dropTarget=0;points=[[0,0.5],[1,0.5]];portConstraint=eastwest;top=0;left=0;right=0;bottom=0;" vertex="1" parent="ELpaoHfYjMMyWj1WzIOa-177">
          <mxGeometry y="90" width="180" height="30" as="geometry" />
        </mxCell>
        <mxCell id="dIYgbRWNfferq7LbjrUM-2" value="" style="shape=partialRectangle;connectable=0;fillColor=none;top=0;left=0;bottom=0;right=0;editable=1;overflow=hidden;whiteSpace=wrap;html=1;" vertex="1" parent="dIYgbRWNfferq7LbjrUM-1">
          <mxGeometry width="30" height="30" as="geometry">
            <mxRectangle width="30" height="30" as="alternateBounds" />
          </mxGeometry>
        </mxCell>
        <mxCell id="dIYgbRWNfferq7LbjrUM-3" value="peso_ejercicio int" style="shape=partialRectangle;connectable=0;fillColor=none;top=0;left=0;bottom=0;right=0;align=left;spacingLeft=6;overflow=hidden;whiteSpace=wrap;html=1;" vertex="1" parent="dIYgbRWNfferq7LbjrUM-1">
          <mxGeometry x="30" width="150" height="30" as="geometry">
            <mxRectangle width="150" height="30" as="alternateBounds" />
          </mxGeometry>
        </mxCell>
        <mxCell id="ELpaoHfYjMMyWj1WzIOa-209" value="" style="shape=tableRow;horizontal=0;startSize=0;swimlaneHead=0;swimlaneBody=0;fillColor=none;collapsible=0;dropTarget=0;points=[[0,0.5],[1,0.5]];portConstraint=eastwest;top=0;left=0;right=0;bottom=0;" vertex="1" parent="ELpaoHfYjMMyWj1WzIOa-177">
          <mxGeometry y="120" width="180" height="30" as="geometry" />
        </mxCell>
        <mxCell id="ELpaoHfYjMMyWj1WzIOa-210" value="&lt;b&gt;FK&lt;/b&gt;" style="shape=partialRectangle;connectable=0;fillColor=none;top=0;left=0;bottom=0;right=0;editable=1;overflow=hidden;whiteSpace=wrap;html=1;" vertex="1" parent="ELpaoHfYjMMyWj1WzIOa-209">
          <mxGeometry width="30" height="30" as="geometry">
            <mxRectangle width="30" height="30" as="alternateBounds" />
          </mxGeometry>
        </mxCell>
        <mxCell id="ELpaoHfYjMMyWj1WzIOa-211" value="rutina_id&lt;span style=&quot;white-space: pre;&quot;&gt;&#x9;&lt;/span&gt;int" style="shape=partialRectangle;connectable=0;fillColor=none;top=0;left=0;bottom=0;right=0;align=left;spacingLeft=6;overflow=hidden;whiteSpace=wrap;html=1;" vertex="1" parent="ELpaoHfYjMMyWj1WzIOa-209">
          <mxGeometry x="30" width="150" height="30" as="geometry">
            <mxRectangle width="150" height="30" as="alternateBounds" />
          </mxGeometry>
        </mxCell>
        <mxCell id="ELpaoHfYjMMyWj1WzIOa-184" value="" style="shape=tableRow;horizontal=0;startSize=0;swimlaneHead=0;swimlaneBody=0;fillColor=none;collapsible=0;dropTarget=0;points=[[0,0.5],[1,0.5]];portConstraint=eastwest;top=0;left=0;right=0;bottom=0;" vertex="1" parent="ELpaoHfYjMMyWj1WzIOa-177">
          <mxGeometry y="150" width="180" height="30" as="geometry" />
        </mxCell>
        <mxCell id="ELpaoHfYjMMyWj1WzIOa-185" value="&lt;b&gt;FK&lt;/b&gt;" style="shape=partialRectangle;connectable=0;fillColor=none;top=0;left=0;bottom=0;right=0;editable=1;overflow=hidden;whiteSpace=wrap;html=1;" vertex="1" parent="ELpaoHfYjMMyWj1WzIOa-184">
          <mxGeometry width="30" height="30" as="geometry">
            <mxRectangle width="30" height="30" as="alternateBounds" />
          </mxGeometry>
        </mxCell>
        <mxCell id="ELpaoHfYjMMyWj1WzIOa-186" value="ejercicio_id&lt;span style=&quot;white-space: pre;&quot;&gt;&#x9;&lt;/span&gt;int" style="shape=partialRectangle;connectable=0;fillColor=none;top=0;left=0;bottom=0;right=0;align=left;spacingLeft=6;overflow=hidden;whiteSpace=wrap;html=1;" vertex="1" parent="ELpaoHfYjMMyWj1WzIOa-184">
          <mxGeometry x="30" width="150" height="30" as="geometry">
            <mxRectangle width="150" height="30" as="alternateBounds" />
          </mxGeometry>
        </mxCell>
        <mxCell id="ELpaoHfYjMMyWj1WzIOa-254" value="&lt;h1 style=&quot;margin-top: 0px; line-height: 70%;&quot;&gt;&lt;pre style=&quot;overflow: auto; padding: 9.144px 13.716px; word-break: break-all; text-wrap-mode: wrap; font-weight: 400; font-size: 12.573px; font-family: Menlo, &amp;quot;Roboto Mono&amp;quot;, &amp;quot;Courier New&amp;quot;, Courier, monospace, Inter, sans-serif; margin-top: 0px !important; margin-bottom: 0px !important; line-height: 0%;&quot;&gt;&lt;font style=&quot;color: rgb(20, 20, 20);&quot;&gt;&lt;font style=&quot;color: rgb(20, 20, 20);&quot;&gt;&lt;br&gt;    &lt;/font&gt;&lt;/font&gt;&lt;/pre&gt;&lt;font face=&quot;Menlo, Roboto Mono, Courier New, Courier, monospace, Inter, sans-serif&quot;&gt;&lt;span style=&quot;font-size: 12.573px; font-weight: 400; white-space-collapse: preserve;&quot;&gt;     USUARIO &lt;font style=&quot;color: rgb(255, 204, 153);&quot;&gt;||--o{&lt;/font&gt; PROGRESO : &lt;font style=&quot;color: rgb(145, 208, 118);&quot;&gt;&quot;registra&quot;&lt;/font&gt;&lt;br&gt;     RUTINA_EJERCICIO&lt;font style=&quot;color: rgb(255, 204, 153);&quot;&gt;||--o{&lt;/font&gt; PROGRESO : &lt;font style=&quot;color: rgb(145, 208, 118);&quot;&gt;&quot;registra&quot;&lt;/font&gt;&lt;br&gt;     USUARIO &lt;font style=&quot;color: rgb(255, 204, 153);&quot;&gt;||--o{&lt;/font&gt; RUTINA : &lt;font style=&quot;color: rgb(145, 208, 118);&quot;&gt;&quot;asignada&quot;&lt;/font&gt;&lt;br&gt;     USUARIO &lt;font style=&quot;color: rgb(255, 204, 153);&quot;&gt;||--o{&lt;/font&gt; RUTINA : &lt;font style=&quot;color: rgb(145, 208, 118);&quot;&gt;&quot;crea&quot; if rol=&#39;entrenador&#39;&quot;&lt;/font&gt;&lt;br&gt;     RUTINA &lt;font style=&quot;color: rgb(255, 204, 153);&quot;&gt;||--|{&lt;/font&gt; RUTINA_EJERCICIO : &lt;font style=&quot;color: rgb(145, 208, 118);&quot;&gt;&quot;contiene&quot;&lt;br&gt;&lt;/font&gt;     EJERCICIO &lt;font style=&quot;color: rgb(255, 204, 153);&quot;&gt;||--o{&lt;/font&gt; RUTINA_EJERCICIO : &lt;font style=&quot;color: rgb(145, 208, 118);&quot;&gt;&quot;referenciado&quot;&lt;/font&gt;&lt;/span&gt;&lt;/font&gt;&lt;/h1&gt;&lt;h1 style=&quot;margin-top: 0px; line-height: 70%;&quot;&gt;&lt;br&gt;&lt;pre style=&quot;overflow: auto; padding: 9.144px 13.716px; word-break: break-all; text-wrap-mode: wrap; font-weight: 400; font-size: 12.573px; font-family: Menlo, &amp;quot;Roboto Mono&amp;quot;, &amp;quot;Courier New&amp;quot;, Courier, monospace, Inter, sans-serif; margin-top: 0px !important; margin-bottom: 0px !important;&quot;&gt;&lt;font style=&quot;color: rgb(20, 20, 20);&quot;&gt;&lt;font style=&quot;color: rgb(20, 20, 20);&quot;&gt;&lt;font style=&quot;color: rgb(20, 20, 20);&quot;&gt;&lt;font style=&quot;&quot;&gt;&lt;font color=&quot;#141414&quot;&gt;   USUARIO &lt;/font&gt;&lt;span style=&quot;color: rgb(56, 58, 66); white-space-collapse: collapse; background-color: transparent;&quot; class=&quot;token punctuation&quot;&gt;{&lt;/span&gt;&lt;pre style=&quot;color: rgb(73, 73, 73); font-family: Menlo, &amp;quot;Roboto Mono&amp;quot;, &amp;quot;Courier New&amp;quot;, Courier, monospace, Inter, sans-serif; overflow: auto; padding: 9.144px 13.716px; text-wrap-mode: wrap; word-break: break-all; margin-top: 0px !important; margin-bottom: 0px !important;&quot;&gt;        int id PK &lt;span style=&quot;color: rgb(80, 161, 79);&quot; class=&quot;token string&quot;&gt;&quot;AUTO_INCREMENT&quot;&lt;/span&gt;&lt;br&gt;        varchar&lt;span style=&quot;color: rgb(80, 161, 79);&quot; class=&quot;token text string&quot;&gt;(50)&lt;/span&gt; nombre &lt;span style=&quot;color: rgb(80, 161, 79);&quot; class=&quot;token string&quot;&gt;&quot;NOT NULL&quot;&lt;/span&gt;&lt;br&gt;        varchar&lt;span style=&quot;color: rgb(80, 161, 79);&quot; class=&quot;token text string&quot;&gt;(100)&lt;/span&gt; email &lt;span style=&quot;color: rgb(80, 161, 79);&quot; class=&quot;token string&quot;&gt;&quot;UNIQUE, NOT NULL&quot;&lt;/span&gt;&lt;/pre&gt;&lt;pre style=&quot;font-family: Menlo, &amp;quot;Roboto Mono&amp;quot;, &amp;quot;Courier New&amp;quot;, Courier, monospace, Inter, sans-serif; overflow: auto; padding: 9.144px 13.716px; text-wrap-mode: wrap; word-break: break-all; margin-top: 0px !important; margin-bottom: 0px !important; color: rgb(73, 73, 73);&quot;&gt;&lt;span style=&quot;color: rgb(80, 161, 79); white-space: pre;&quot;&gt;&#x9;&lt;/span&gt;&lt;font style=&quot;color: rgb(0, 0, 0);&quot;&gt;varchar&lt;/font&gt;&lt;font color=&quot;#50a14f&quot;&gt;(100) &lt;/font&gt;&lt;font style=&quot;color: rgb(0, 0, 0);&quot;&gt;password&lt;/font&gt;&lt;font color=&quot;#50a14f&quot;&gt; &quot;NOT NULL&quot;&lt;br&gt;&lt;/font&gt;&lt;font color=&quot;#494949&quot;&gt;        varchar&lt;/font&gt;&lt;span style=&quot;color: rgb(80, 161, 79);&quot; class=&quot;token text string&quot;&gt;(20)&lt;/span&gt;&lt;font color=&quot;#494949&quot;&gt; rol &lt;/font&gt;&lt;span style=&quot;color: rgb(80, 161, 79);&quot; class=&quot;token string&quot;&gt;&quot;&#39;cliente&#39;,&#39;entrenador&#39;,&#39;admin&#39; NOT NULL&quot;&lt;/span&gt;&lt;font color=&quot;#494949&quot;&gt;    &lt;/font&gt;&lt;span style=&quot;color: rgb(56, 58, 66);&quot; class=&quot;token punctuation&quot;&gt;}&lt;/span&gt;&lt;/pre&gt;&lt;/font&gt;&lt;/font&gt;&lt;font style=&quot;color: rgb(20, 20, 20);&quot;&gt;    &lt;/font&gt;&lt;/font&gt;&lt;font color=&quot;#141414&quot;&gt;RUTINA &lt;/font&gt;&lt;span style=&quot;color: rgb(227, 234, 242); white-space-collapse: collapse; background-color: transparent;&quot; class=&quot;token punctuation&quot;&gt;{&lt;/span&gt;&lt;/font&gt;&lt;/pre&gt;&lt;pre style=&quot;font-family: Menlo, &amp;quot;Roboto Mono&amp;quot;, &amp;quot;Courier New&amp;quot;, Courier, monospace, Inter, sans-serif; overflow: auto; padding: 9.144px 13.716px; text-wrap-mode: wrap; word-break: break-all; font-size: 12.573px; font-weight: 400; margin-top: 0px !important; margin-bottom: 0px !important; color: rgb(255, 255, 255);&quot;&gt;&lt;font style=&quot;color: rgb(20, 20, 20);&quot;&gt;        int id PK &lt;span style=&quot;color: rgb(145, 208, 118);&quot; class=&quot;token string&quot;&gt;&quot;AUTO_INCREMENT&quot;&lt;/span&gt;&lt;br&gt;        int usuario_id FK &lt;span style=&quot;color: rgb(145, 208, 118);&quot; class=&quot;token string&quot;&gt;&quot;REFERENCES USUARIO(id) (cliente)&quot;&lt;/span&gt;&lt;br&gt;        int entrenador_id FK &lt;span style=&quot;color: rgb(145, 208, 118);&quot; class=&quot;token string&quot;&gt;&quot;REFERENCES USUARIO(id) (rol=&#39;entrenador&#39;)&quot;&lt;/span&gt;&lt;br&gt;        varchar&lt;span style=&quot;color: rgb(145, 208, 118);&quot; class=&quot;token text string&quot;&gt;(255)&lt;/span&gt; descripcion &lt;span style=&quot;color: rgb(145, 208, 118);&quot; class=&quot;token string&quot;&gt;&quot;NOT NULL&quot;&lt;/span&gt;&lt;br&gt;    &lt;span style=&quot;color: rgb(227, 234, 242);&quot; class=&quot;token punctuation&quot;&gt;}&lt;/span&gt;&lt;/font&gt;&lt;/pre&gt;&lt;pre style=&quot;overflow: auto; padding: 9.144px 13.716px; word-break: break-all; text-wrap-mode: wrap; font-weight: 400; font-size: 12.573px; font-family: Menlo, &amp;quot;Roboto Mono&amp;quot;, &amp;quot;Courier New&amp;quot;, Courier, monospace, Inter, sans-serif; margin-top: 0px !important; margin-bottom: 0px !important;&quot;&gt;&lt;font style=&quot;color: rgb(20, 20, 20);&quot;&gt;&lt;font&gt;&lt;font&gt;    &lt;/font&gt;&lt;/font&gt;EJERCICIO &lt;span style=&quot;white-space-collapse: collapse; background-color: transparent; color: rgb(227, 234, 242);&quot; class=&quot;token punctuation&quot;&gt;{&lt;/span&gt;&lt;/font&gt;&lt;/pre&gt;&lt;pre style=&quot;font-family: Menlo, &amp;quot;Roboto Mono&amp;quot;, &amp;quot;Courier New&amp;quot;, Courier, monospace, Inter, sans-serif; overflow: auto; padding: 9.144px 13.716px; text-wrap-mode: wrap; word-break: break-all; font-size: 12.573px; font-weight: 400; margin-top: 0px !important; margin-bottom: 0px !important;&quot;&gt;&lt;font style=&quot;color: rgb(20, 20, 20);&quot;&gt;        int id PK &lt;span style=&quot;color: rgb(145, 208, 118);&quot; class=&quot;token string&quot;&gt;&quot;AUTO_INCREMENT&quot;&lt;/span&gt;&lt;br&gt;        varchar&lt;span style=&quot;color: rgb(145, 208, 118);&quot; class=&quot;token text string&quot;&gt;(50)&lt;/span&gt; nombre &lt;span style=&quot;color: rgb(145, 208, 118);&quot; class=&quot;token string&quot;&gt;&quot;NOT NULL&quot;&lt;/span&gt;&lt;br&gt;        varchar&lt;span style=&quot;color: rgb(145, 208, 118);&quot; class=&quot;token text string&quot;&gt;(20)&lt;/span&gt; tipo &lt;span style=&quot;color: rgb(145, 208, 118);&quot; class=&quot;token string&quot;&gt;&quot;&#39;pecho&#39;, &#39;abdominales&#39;, &#39;piernas&#39;, &#39;espalda&#39;, &#39;triceps&#39;, &#39;biceps&#39;, &#39;hombro&#39;, &#39;gluteo&#39; NOT NULL&quot;&lt;/span&gt;&lt;br&gt;        varchar&lt;/font&gt;&lt;font style=&quot;color: rgb(145, 208, 118);&quot;&gt;(255)&lt;/font&gt;&lt;font style=&quot;color: rgb(20, 20, 20);&quot;&gt; descripcion&lt;br&gt;    &lt;span style=&quot;color: rgb(227, 234, 242);&quot; class=&quot;token punctuation&quot;&gt;}&lt;/span&gt;&lt;br&gt;&lt;/font&gt;&lt;/pre&gt;&lt;div&gt;&lt;span style=&quot;color: rgb(227, 234, 242);&quot; class=&quot;token punctuation&quot;&gt;&lt;font style=&quot;color: rgb(20, 20, 20);&quot;&gt;&lt;br&gt;&lt;/font&gt;&lt;/span&gt;&lt;/div&gt;&lt;pre style=&quot;overflow: auto; padding: 9.144px 13.716px; word-break: break-all; font-weight: 400; font-size: 12.573px; font-family: Menlo, &amp;quot;Roboto Mono&amp;quot;, &amp;quot;Courier New&amp;quot;, Courier, monospace, Inter, sans-serif; margin-top: 0px !important; margin-bottom: 0px !important;&quot;&gt;&lt;font style=&quot;color: rgb(20, 20, 20);&quot;&gt;&lt;font&gt;&lt;font style=&quot;text-wrap-mode: wrap;&quot;&gt;    RUTINA_EJERCICIO &lt;/font&gt;&lt;span style=&quot;text-wrap-mode: wrap; color: rgb(227, 234, 242);&quot; class=&quot;token punctuation&quot;&gt;{&lt;/span&gt;&lt;font style=&quot;text-wrap-mode: wrap;&quot;&gt;&lt;br&gt;        int rutina_id FK &lt;/font&gt;&lt;span style=&quot;text-wrap-mode: wrap; color: rgb(145, 208, 118);&quot; class=&quot;token string&quot;&gt;&quot;REFERENCES RUTINA(id)&quot;&lt;/span&gt;&lt;font style=&quot;text-wrap-mode: wrap;&quot;&gt;&lt;br&gt;        int ejercicio_id FK &lt;/font&gt;&lt;span style=&quot;text-wrap-mode: wrap; color: rgb(145, 208, 118);&quot; class=&quot;token string&quot;&gt;&quot;REFERENCES EJERCICIO(id)&quot;&lt;/span&gt;&lt;font style=&quot;text-wrap-mode: wrap;&quot;&gt;&lt;br&gt;        int series&lt;br&gt;        int repeticiones&lt;/font&gt;&lt;/font&gt;&lt;/font&gt;&lt;/pre&gt;&lt;pre style=&quot;overflow: auto; padding: 9.144px 13.716px; word-break: break-all; font-weight: 400; font-size: 12.573px; font-family: Menlo, &amp;quot;Roboto Mono&amp;quot;, &amp;quot;Courier New&amp;quot;, Courier, monospace, Inter, sans-serif; margin-top: 0px !important; margin-bottom: 0px !important;&quot;&gt;&lt;font style=&quot;color: rgb(20, 20, 20);&quot;&gt;&lt;font&gt;&lt;font style=&quot;text-wrap-mode: wrap;&quot;&gt;&lt;span style=&quot;white-space: pre;&quot;&gt;&#x9;&lt;/span&gt;int peso_ejercicio&lt;br&gt;        PRIMARY KEY &lt;/font&gt;&lt;span style=&quot;text-wrap-mode: wrap; color: rgb(145, 208, 118);&quot; class=&quot;token text string&quot;&gt;(rutina_id, ejercicio_id)&lt;/span&gt;&lt;font style=&quot;text-wrap-mode: wrap;&quot;&gt;&lt;br&gt;    &lt;/font&gt;&lt;span style=&quot;text-wrap-mode: wrap; color: rgb(227, 234, 242);&quot; class=&quot;token punctuation&quot;&gt;}&lt;/span&gt;&lt;/font&gt;&lt;/font&gt;&lt;/pre&gt;&lt;pre style=&quot;overflow: auto; padding: 9.144px 13.716px; word-break: break-all; font-weight: 400; font-size: 12.573px; font-family: Menlo, &amp;quot;Roboto Mono&amp;quot;, &amp;quot;Courier New&amp;quot;, Courier, monospace, Inter, sans-serif; margin-top: 0px !important; margin-bottom: 0px !important;&quot;&gt;&lt;font style=&quot;color: rgb(20, 20, 20);&quot;&gt;&lt;font style=&quot;&quot;&gt;&lt;font style=&quot;text-wrap-mode: wrap;&quot;&gt;&lt;br&gt;&lt;/font&gt;&lt;/font&gt;&lt;/font&gt;&lt;/pre&gt;&lt;/h1&gt;&lt;blockquote style=&quot;margin: 0px 0px 0px 40px; border: none; padding: 0px; line-height: 0%;&quot;&gt;&lt;h1 style=&quot;margin-top: 0px;&quot;&gt;&lt;span style=&quot;font-size: 12.573px; font-weight: 400; white-space: pre;&quot;&gt;&lt;font face=&quot;Menlo, Roboto Mono, Courier New, Courier, monospace, Inter, sans-serif&quot;&gt;PROGRESO {&lt;/font&gt;&lt;/span&gt;&lt;/h1&gt;&lt;h1 style=&quot;margin-top: 0px;&quot;&gt;&lt;span style=&quot;font-size: 12.573px; font-weight: 400; white-space: pre;&quot;&gt;&lt;font face=&quot;Menlo, Roboto Mono, Courier New, Courier, monospace, Inter, sans-serif&quot;&gt;    int id PK &lt;font style=&quot;color: rgb(145, 208, 118);&quot;&gt;&quot;AUTO_INCREMENT&quot;&lt;/font&gt;&lt;/font&gt;&lt;/span&gt;&lt;/h1&gt;&lt;h1 style=&quot;margin-top: 0px;&quot;&gt;&lt;span style=&quot;font-family: Menlo, &amp;quot;Roboto Mono&amp;quot;, &amp;quot;Courier New&amp;quot;, Courier, monospace, Inter, sans-serif; font-size: 12.573px; font-weight: 400; white-space: pre; background-color: transparent; color: light-dark(rgb(0, 0, 0), rgb(255, 255, 255));&quot;&gt;    int usuario_id FK &lt;/span&gt;&lt;span style=&quot;font-family: Menlo, &amp;quot;Roboto Mono&amp;quot;, &amp;quot;Courier New&amp;quot;, Courier, monospace, Inter, sans-serif; font-size: 12.573px; font-weight: 400; white-space: pre; background-color: transparent;&quot;&gt;&lt;font style=&quot;color: light-dark(rgb(145, 208, 118), rgb(255, 255, 255));&quot;&gt;&quot;REFERENCES USUARIO(id) NOT NULL&quot;&lt;/font&gt;&lt;/span&gt;&lt;/h1&gt;&lt;h1 style=&quot;margin-top: 0px;&quot;&gt;&lt;span style=&quot;font-size: 12.573px; font-weight: 400; white-space: pre;&quot;&gt;&lt;font face=&quot;Menlo, Roboto Mono, Courier New, Courier, monospace, Inter, sans-serif&quot;&gt;    int rutina_id FK &lt;font style=&quot;color: rgb(145, 208, 118);&quot;&gt;&quot;REFERENCES RUTINA(id) NOT NULL&quot;&lt;/font&gt;&lt;/font&gt;&lt;/span&gt;&lt;/h1&gt;&lt;h1 style=&quot;margin-top: 0px;&quot;&gt;&lt;span style=&quot;font-size: 12.573px; font-weight: 400; white-space: pre;&quot;&gt;&lt;font face=&quot;Menlo, Roboto Mono, Courier New, Courier, monospace, Inter, sans-serif&quot;&gt;    int ejercicio_id FK &lt;font style=&quot;color: rgb(145, 208, 118);&quot;&gt;&quot;REFERENCES EJERCICIO(id) NOT NULL&quot;&lt;/font&gt;&lt;/font&gt;&lt;/span&gt;&lt;/h1&gt;&lt;h1 style=&quot;margin-top: 0px;&quot;&gt;&lt;span style=&quot;font-size: 12.573px; font-weight: 400; white-space: pre;&quot;&gt;&lt;font face=&quot;Menlo, Roboto Mono, Courier New, Courier, monospace, Inter, sans-serif&quot;&gt;    date fecha &lt;font style=&quot;color: rgb(145, 208, 118);&quot;&gt;&quot;DEFAULT CURRENT_DATE&quot;&lt;/font&gt;&lt;/font&gt;&lt;/span&gt;&lt;/h1&gt;&lt;h1 style=&quot;margin-top: 0px;&quot;&gt;&lt;span style=&quot;font-size: 12.573px; font-weight: 400; white-space: pre;&quot;&gt;&lt;font face=&quot;Menlo, Roboto Mono, Courier New, Courier, monospace, Inter, sans-serif&quot;&gt;    int series_completadas &lt;font style=&quot;color: rgb(145, 208, 118);&quot;&gt;&quot;NOT NULL&quot;&lt;/font&gt;&lt;/font&gt;&lt;/span&gt;&lt;/h1&gt;&lt;h1 style=&quot;margin-top: 0px;&quot;&gt;&lt;span style=&quot;font-size: 12.573px; font-weight: 400; white-space: pre;&quot;&gt;&lt;font face=&quot;Menlo, Roboto Mono, Courier New, Courier, monospace, Inter, sans-serif&quot;&gt;    int repeticiones_completadas &lt;font style=&quot;color: rgb(145, 208, 118);&quot;&gt;&quot;NOT NULL&quot;&lt;/font&gt;&lt;/font&gt;&lt;/span&gt;&lt;/h1&gt;&lt;h1 style=&quot;margin-top: 0px;&quot;&gt;&lt;span style=&quot;font-size: 12.573px; font-weight: 400; white-space: pre;&quot;&gt;&lt;font face=&quot;Menlo, Roboto Mono, Courier New, Courier, monospace, Inter, sans-serif&quot;&gt;    int peso_utilizado &quot;kg, NULL si no aplica&quot;&lt;/font&gt;&lt;/span&gt;&lt;/h1&gt;&lt;h1 style=&quot;margin-top: 0px;&quot;&gt;&lt;span style=&quot;font-size: 12.573px; font-weight: 400; white-space: pre;&quot;&gt;&lt;font face=&quot;Menlo, Roboto Mono, Courier New, Courier, monospace, Inter, sans-serif&quot;&gt;    text notas &lt;font style=&quot;color: rgb(145, 208, 118);&quot;&gt;&quot;NULL opcional&quot;&lt;/font&gt;&lt;/font&gt;&lt;/span&gt;&lt;/h1&gt;&lt;h1 style=&quot;margin-top: 0px;&quot;&gt;&lt;span style=&quot;font-size: 12.573px; font-weight: 400; white-space: pre;&quot;&gt;&lt;font face=&quot;Menlo, Roboto Mono, Courier New, Courier, monospace, Inter, sans-serif&quot;&gt;    PRIMARY KEY &lt;font style=&quot;color: rgb(145, 208, 118);&quot;&gt;(id)&lt;/font&gt;&lt;/font&gt;&lt;/span&gt;&lt;/h1&gt;&lt;h1 style=&quot;margin-top: 0px;&quot;&gt;&lt;span style=&quot;font-size: 12.573px; font-weight: 400; white-space: pre;&quot;&gt;&lt;font face=&quot;Menlo, Roboto Mono, Courier New, Courier, monospace, Inter, sans-serif&quot;&gt;    FOREIGN KEY &lt;font style=&quot;color: rgb(145, 208, 118);&quot;&gt;(rutina_id, ejercicio_id) REFERENCES RUTINA_EJERCICIO(rutina_id, ejercicio_id)&lt;/font&gt;&lt;/font&gt;&lt;/span&gt;&lt;/h1&gt;&lt;h1 style=&quot;margin-top: 0px;&quot;&gt;&lt;span style=&quot;font-size: 12.573px; font-weight: 400; white-space: pre;&quot;&gt;&lt;font face=&quot;Menlo, Roboto Mono, Courier New, Courier, monospace, Inter, sans-serif&quot;&gt;}&lt;/font&gt;&lt;/span&gt;&lt;/h1&gt;&lt;/blockquote&gt;" style="text;html=1;whiteSpace=wrap;overflow=hidden;rounded=0;" vertex="1" parent="1">
          <mxGeometry x="479" y="713" width="817" height="1169" as="geometry" />
        </mxCell>
        <mxCell id="ELpaoHfYjMMyWj1WzIOa-261" value="Asignada" style="text;html=1;align=center;verticalAlign=middle;resizable=0;points=[];autosize=1;strokeColor=none;fillColor=none;" vertex="1" parent="1">
          <mxGeometry x="77" y="777" width="70" height="30" as="geometry" />
        </mxCell>
        <mxCell id="ELpaoHfYjMMyWj1WzIOa-263" value="Crea" style="text;html=1;align=center;verticalAlign=middle;resizable=0;points=[];autosize=1;strokeColor=none;fillColor=none;" vertex="1" parent="1">
          <mxGeometry x="82" y="863" width="50" height="30" as="geometry" />
        </mxCell>
        <mxCell id="ELpaoHfYjMMyWj1WzIOa-264" value="" style="fontSize=12;html=1;endArrow=ERzeroToMany;startArrow=ERmandOne;rounded=0;entryX=0.5;entryY=0;entryDx=0;entryDy=0;exitX=0.502;exitY=0.978;exitDx=0;exitDy=0;exitPerimeter=0;" edge="1" parent="1" source="ELpaoHfYjMMyWj1WzIOa-284" target="ELpaoHfYjMMyWj1WzIOa-177">
          <mxGeometry width="100" height="100" relative="1" as="geometry">
            <mxPoint x="297" y="943" as="sourcePoint" />
            <mxPoint x="710" y="1005" as="targetPoint" />
          </mxGeometry>
        </mxCell>
        <mxCell id="ELpaoHfYjMMyWj1WzIOa-265" value="Contiene" style="text;html=1;align=center;verticalAlign=middle;resizable=0;points=[];autosize=1;strokeColor=none;fillColor=none;" vertex="1" parent="1">
          <mxGeometry x="306" y="998" width="70" height="30" as="geometry" />
        </mxCell>
        <mxCell id="ELpaoHfYjMMyWj1WzIOa-266" value="" style="fontSize=12;html=1;endArrow=ERzeroToMany;startArrow=ERmandOne;rounded=0;exitX=0.5;exitY=0;exitDx=0;exitDy=0;entryX=0.497;entryY=0.961;entryDx=0;entryDy=0;entryPerimeter=0;" edge="1" parent="1" source="ELpaoHfYjMMyWj1WzIOa-76" target="ELpaoHfYjMMyWj1WzIOa-184">
          <mxGeometry width="100" height="100" relative="1" as="geometry">
            <mxPoint x="330" y="1240" as="sourcePoint" />
            <mxPoint x="330" y="1380" as="targetPoint" />
          </mxGeometry>
        </mxCell>
        <mxCell id="ELpaoHfYjMMyWj1WzIOa-267" value="Referenciado" style="text;html=1;align=center;verticalAlign=middle;resizable=0;points=[];autosize=1;strokeColor=none;fillColor=none;" vertex="1" parent="1">
          <mxGeometry x="302" y="1259" width="90" height="30" as="geometry" />
        </mxCell>
        <mxCell id="ELpaoHfYjMMyWj1WzIOa-268" value="" style="fontSize=12;html=1;endArrow=ERzeroToMany;startArrow=ERmandOne;rounded=0;exitX=0.504;exitY=0.97;exitDx=0;exitDy=0;exitPerimeter=0;entryX=0.5;entryY=0;entryDx=0;entryDy=0;" edge="1" parent="1" source="ELpaoHfYjMMyWj1WzIOa-25" target="ELpaoHfYjMMyWj1WzIOa-155">
          <mxGeometry width="100" height="100" relative="1" as="geometry">
            <mxPoint x="31.53" y="1000" as="sourcePoint" />
            <mxPoint x="31.53" y="1129" as="targetPoint" />
          </mxGeometry>
        </mxCell>
        <mxCell id="ELpaoHfYjMMyWj1WzIOa-269" value="Registra" style="text;html=1;align=center;verticalAlign=middle;resizable=0;points=[];autosize=1;strokeColor=none;fillColor=none;" vertex="1" parent="1">
          <mxGeometry x="-76.47" y="980" width="70" height="30" as="geometry" />
        </mxCell>
        <mxCell id="ELpaoHfYjMMyWj1WzIOa-273" value="" style="edgeStyle=entityRelationEdgeStyle;fontSize=12;html=1;endArrow=ERmandOne;startArrow=ERmandOne;rounded=0;exitX=1;exitY=0.5;exitDx=0;exitDy=0;" edge="1" parent="1" source="ELpaoHfYjMMyWj1WzIOa-19">
          <mxGeometry width="100" height="100" relative="1" as="geometry">
            <mxPoint x="220" y="1040" as="sourcePoint" />
            <mxPoint x="210" y="812" as="targetPoint" />
          </mxGeometry>
        </mxCell>
        <mxCell id="ELpaoHfYjMMyWj1WzIOa-283" value="" style="fontSize=12;html=1;endArrow=ERzeroToMany;startArrow=ERmandOne;rounded=0;entryX=-0.008;entryY=0.339;entryDx=0;entryDy=0;entryPerimeter=0;exitX=1.003;exitY=0.282;exitDx=0;exitDy=0;exitPerimeter=0;" edge="1" parent="1" source="2lWTfANe_0FT4XjMLWdA-1" target="ELpaoHfYjMMyWj1WzIOa-280">
          <mxGeometry width="100" height="100" relative="1" as="geometry">
            <mxPoint x="15" y="895" as="sourcePoint" />
            <mxPoint x="370" y="1108" as="targetPoint" />
          </mxGeometry>
        </mxCell>
        <mxCell id="dIYgbRWNfferq7LbjrUM-16" value="" style="shape=tableRow;horizontal=0;startSize=0;swimlaneHead=0;swimlaneBody=0;fillColor=none;collapsible=0;dropTarget=0;points=[[0,0.5],[1,0.5]];portConstraint=eastwest;top=0;left=0;right=0;bottom=0;" vertex="1" parent="1">
          <mxGeometry x="-53" y="611" width="96" height="30" as="geometry" />
        </mxCell>
        <mxCell id="dIYgbRWNfferq7LbjrUM-19" value="" style="fontSize=12;html=1;endArrow=ERzeroToMany;startArrow=ERmandOne;rounded=0;exitX=0.004;exitY=0.616;exitDx=0;exitDy=0;exitPerimeter=0;entryX=0.99;entryY=0.383;entryDx=0;entryDy=0;entryPerimeter=0;" edge="1" parent="1" source="dIYgbRWNfferq7LbjrUM-1" target="dIYgbRWNfferq7LbjrUM-13">
          <mxGeometry width="100" height="100" relative="1" as="geometry">
            <mxPoint x="245" y="1147" as="sourcePoint" />
            <mxPoint x="137.47" y="1192" as="targetPoint" />
          </mxGeometry>
        </mxCell>
        <mxCell id="dIYgbRWNfferq7LbjrUM-20" value="Registra" style="text;html=1;align=center;verticalAlign=middle;resizable=0;points=[];autosize=1;strokeColor=none;fillColor=none;" vertex="1" parent="1">
          <mxGeometry x="102" y="1140" width="70" height="30" as="geometry" />
        </mxCell>
      </root>
    </mxGraphModel>
  </diagram>
</mxfile>
